<?xml version="1.0" standalone="no"?>
<!DOCTYPE svg PUBLIC "-//W3C//DTD SVG 20010904//EN"
 "http://www.w3.org/TR/2001/REC-SVG-20010904/DTD/svg10.dtd">
<svg version="1.0" xmlns="http://www.w3.org/2000/svg"
 width="500.000000pt" height="500.000000pt" viewBox="0 0 500.000000 500.000000"
 preserveAspectRatio="xMidYMid meet">
<metadata>
Created by potrace 1.11, written by Peter Selinger 2001-2013
</metadata>
<g transform="translate(0.000000,500.000000) scale(0.100000,-0.100000)"
fill="#000000" stroke="none">
<path d="M2445 4776 c-52 -35 -155 -135 -201 -196 -43 -57 -76 -137 -77 -189
-1 -46 16 -97 38 -113 5 -4 7 -10 3 -13 -3 -3 -15 7 -27 24 l-22 30 -34 -20
c-90 -54 -239 -235 -271 -331 -21 -62 -22 -157 -4 -213 7 -22 32 -87 56 -143
82 -193 90 -272 38 -375 -35 -68 -156 -188 -313 -307 -255 -194 -417 -390
-524 -635 -32 -74 -69 -192 -81 -258 -3 -15 -7 -35 -10 -45 -20 -71 -29 -398
-13 -505 57 -392 280 -765 598 -999 210 -155 457 -255 709 -286 73 -9 331 -8
400 2 171 25 396 102 545 189 175 101 366 276 482 440 103 146 211 390 238
535 2 14 10 51 16 81 23 107 16 455 -11 561 -5 19 -11 49 -14 65 -3 17 -19 68
-34 115 -99 290 -276 524 -552 733 -124 93 -130 98 -225 193 -158 158 -169
247 -61 497 72 166 83 228 58 327 -7 30 -25 75 -39 100 -51 88 -162 210 -232
255 l-40 25 -32 -45 c-32 -45 -50 -61 -29 -27 49 80 52 90 52 139 -1 85 -48
171 -155 282 -49 51 -161 141 -176 141 -3 0 -29 -15 -56 -34z m97 -103 c18
-16 39 -32 45 -38 19 -15 116 -136 132 -164 37 -67 35 -78 -29 -206 -33 -66
-62 -133 -65 -150 -7 -45 -8 -145 -1 -190 8 -45 109 -416 113 -412 1 2 4 97 6
212 3 199 5 214 32 293 15 45 41 103 57 128 25 40 31 44 45 32 30 -24 113
-140 139 -195 47 -95 40 -153 -40 -311 -126 -250 -131 -396 -21 -567 45 -71
175 -203 290 -294 266 -213 427 -435 503 -696 63 -214 70 -450 21 -675 -31
-145 -106 -317 -196 -453 -62 -93 -237 -268 -333 -334 -142 -96 -357 -188
-490 -208 -25 -4 -70 -11 -100 -15 -55 -9 -296 -6 -336 3 -12 3 -37 8 -55 11
-155 26 -349 107 -499 209 -96 66 -261 231 -327 327 -98 144 -170 310 -209
485 -10 43 -17 134 -19 235 -4 143 0 193 19 306 12 68 54 191 92 273 95 202
207 338 441 533 272 227 363 359 365 528 2 89 -22 171 -92 319 -67 143 -78
180 -74 236 4 45 50 139 98 200 47 61 79 95 86 95 11 0 76 -136 95 -200 13
-41 19 -104 22 -250 2 -107 5 -204 6 -215 3 -32 100 316 112 400 10 74 8 158
-5 207 -13 47 -73 170 -100 205 -24 31 -16 86 23 151 35 59 181 212 202 212 8
0 28 -12 47 -27z"/>
<path d="M2145 2422 c-18 -12 -42 -56 -48 -87 -9 -48 11 -122 39 -144 50 -39
93 5 99 103 6 87 -46 160 -90 128z"/>
<path d="M2857 2415 c-44 -33 -55 -146 -20 -205 65 -111 160 61 98 179 -8 17
-20 31 -24 31 -5 0 -15 2 -23 5 -7 2 -21 -2 -31 -10z"/>
<path d="M1705 1670 c-13 -57 -6 -180 15 -258 84 -306 356 -519 660 -516 72 1
120 7 120 14 0 4 -26 14 -58 23 -329 91 -589 340 -692 662 -36 116 -36 115
-45 75z"/>
</g>
</svg>
