<?xml version="1.0" encoding="utf-8"?>
<!-- Generator: Adobe Illustrator 16.0.0, SVG Export Plug-In . SVG Version: 6.00 Build 0)  -->
<!DOCTYPE svg PUBLIC "-//W3C//DTD SVG 1.1//EN" "http://www.w3.org/Graphics/SVG/1.1/DTD/svg11.dtd">
<svg version="1.1" id="Слой_1" xmlns="http://www.w3.org/2000/svg" xmlns:xlink="http://www.w3.org/1999/xlink" x="0px" y="0px"
	 width="65px" height="65px" viewBox="92.5 1 65 65" enable-background="new 92.5 1 65 65" xml:space="preserve">
<path d="M144.61,43.603l-0.006-0.276c-0.005-0.193-0.017-0.379-0.024-0.567c-0.078-1.509-0.323-3.004-0.736-4.459
	c-0.418-1.458-1.021-2.866-1.787-4.17c-0.766-1.303-1.69-2.505-2.729-3.576c-1.034-1.063-2.161-2.028-3.372-2.884
	c-0.542-0.394-1.064-0.813-1.568-1.254c-0.5-0.432-0.972-0.895-1.415-1.386c-0.204-0.23-0.396-0.473-0.569-0.728
	c-0.159-0.238-0.294-0.492-0.403-0.759c-0.212-0.515-0.293-1.075-0.233-1.631c0.056-0.579,0.233-1.196,0.476-1.81
	c0.062-0.154,0.121-0.305,0.19-0.459l0.208-0.472c0.146-0.324,0.292-0.653,0.435-0.998c0.138-0.348,0.273-0.708,0.374-1.099
	c0.104-0.388,0.174-0.81,0.176-1.239s-0.065-0.856-0.194-1.267c-0.124-0.387-0.29-0.76-0.496-1.109
	c-0.193-0.33-0.409-0.646-0.646-0.946c-0.227-0.292-0.46-0.573-0.705-0.848c-0.244-0.274-0.5-0.544-0.774-0.802
	c-0.139-0.129-0.282-0.254-0.431-0.374c-0.075-0.063-0.154-0.122-0.234-0.182c-0.04-0.027-0.082-0.059-0.124-0.088l-0.07-0.046
	l-0.038-0.02l-0.052-0.031l-0.424-0.251l-0.297,0.389v0.002c-0.184,0.236-0.332,0.456-0.486,0.692
	c-0.324,0.493-0.609,1.014-0.846,1.555c0.021-0.069,0.034-0.14,0.06-0.205l0.03-0.084l0.042-0.099l0.086-0.197
	c0.058-0.133,0.114-0.261,0.178-0.39c0.12-0.256,0.246-0.504,0.392-0.74c0.069-0.119,0.145-0.235,0.225-0.358l0.123-0.188
	c0.044-0.069,0.075-0.115,0.138-0.221c0.205-0.364,0.277-0.79,0.254-1.167c-0.026-0.359-0.112-0.711-0.254-1.043
	c-0.263-0.629-0.633-1.16-1.021-1.643c-0.389-0.488-0.807-0.945-1.267-1.371c-0.229-0.215-0.467-0.416-0.714-0.609
	c-0.188-0.149-0.384-0.288-0.587-0.417l-0.106-0.065c-0.038-0.023-0.066-0.041-0.122-0.072L124.999,3.5l-0.262,0.143
	c-0.057,0.031-0.087,0.049-0.124,0.072l-0.106,0.065c-0.202,0.13-0.398,0.27-0.586,0.417c-0.251,0.195-0.49,0.396-0.719,0.609
	c-0.457,0.426-0.878,0.885-1.264,1.37c-0.389,0.485-0.758,1.014-1.021,1.644c-0.141,0.332-0.228,0.684-0.254,1.043
	c-0.024,0.377,0.047,0.802,0.254,1.167l0.039,0.065l0.036,0.061l0.062,0.096l0.123,0.188c0.233,0.35,0.439,0.717,0.615,1.098
	c0.064,0.13,0.123,0.259,0.179,0.39l0.085,0.2l0.041,0.092c0.014,0.033,0.031,0.075,0.036,0.094
	c0.022,0.064,0.039,0.134,0.058,0.202c-0.238-0.541-0.521-1.062-0.846-1.555c-0.153-0.235-0.303-0.455-0.486-0.693l-0.292-0.391
	l-0.427,0.251l-0.055,0.031l-0.037,0.02l-0.069,0.047c-0.044,0.029-0.086,0.061-0.126,0.088c-0.232,0.172-0.455,0.358-0.666,0.556
	c-0.272,0.256-0.528,0.528-0.773,0.802c-0.244,0.276-0.479,0.558-0.702,0.844c-0.235,0.304-0.451,0.61-0.649,0.951
	c-0.197,0.338-0.372,0.707-0.498,1.106c-0.125,0.399-0.194,0.835-0.194,1.267c0.002,0.432,0.074,0.853,0.176,1.239
	c0.103,0.392,0.238,0.753,0.377,1.1c0.141,0.345,0.287,0.675,0.433,0.999l0.208,0.472c0.066,0.154,0.13,0.305,0.188,0.459
	c0.238,0.614,0.42,1.229,0.476,1.811c0.061,0.556-0.02,1.116-0.232,1.632c-0.053,0.134-0.115,0.263-0.184,0.392l-0.051,0.098
	l-0.057,0.098l-0.111,0.174c-0.162,0.241-0.358,0.486-0.569,0.725c-0.425,0.479-0.907,0.942-1.414,1.387
	c-0.502,0.439-1.042,0.872-1.572,1.256c-1.208,0.855-2.335,1.82-3.367,2.882c-1.048,1.078-1.965,2.279-2.729,3.574
	c-0.769,1.311-1.37,2.712-1.786,4.174c-0.412,1.452-0.66,2.947-0.738,4.456c-0.021,0.374-0.031,0.748-0.031,1.123v0.284l0.006,0.287
	c0.024,0.946,0.118,1.891,0.28,2.825c0.51,2.991,1.752,5.86,3.569,8.3c1.827,2.455,4.199,4.45,6.931,5.829
	c2.725,1.374,5.778,2.091,8.824,2.089h0.012l0.269-0.002l0.294-0.006c0.572-0.02,1.142-0.062,1.709-0.124
	c2.279-0.267,4.494-0.927,6.545-1.957c2.729-1.379,5.102-3.376,6.929-5.829c2.52-3.377,3.872-7.481,3.859-11.695l-0.005-0.284
	H144.61z M141.937,43.753v0.112c-0.017,0.982-0.117,1.959-0.3,2.923c-1.006,5.202-4.378,9.64-9.124,12
	c-1.163,0.578-2.387,1.021-3.65,1.317c-1.107,0.257-2.238,0.403-3.373,0.433l-0.234,0.007l-0.254,0.002
	c-2.605,0.004-5.177-0.597-7.512-1.757c-2.337-1.165-4.376-2.85-5.959-4.929c-2.09-2.745-3.292-6.061-3.447-9.507l-0.01-0.241
	l-0.005-0.248c-0.004-0.329-0.002-0.662,0.006-0.993c0.034-1.314,0.215-2.621,0.541-3.896c0.328-1.266,0.814-2.486,1.45-3.632
	c0.646-1.152,1.419-2.228,2.305-3.207c0.891-0.994,1.889-1.894,2.969-2.723c0.583-0.455,1.145-0.938,1.685-1.445
	c0.553-0.511,1.07-1.059,1.548-1.639c0.242-0.299,0.476-0.618,0.692-0.971c0.053-0.093,0.102-0.178,0.16-0.284l0.07-0.136
	l0.068-0.137c0.088-0.187,0.167-0.379,0.239-0.579c0.29-0.811,0.374-1.679,0.245-2.53c-0.12-0.824-0.386-1.562-0.686-2.251
	c-0.078-0.172-0.156-0.343-0.236-0.51c-0.082-0.17-0.168-0.33-0.246-0.484c-0.16-0.313-0.317-0.619-0.458-0.921
	c-0.285-0.604-0.502-1.181-0.533-1.727c-0.017-0.274,0.01-0.548,0.082-0.825c0.071-0.279,0.185-0.559,0.324-0.841
	c0.147-0.287,0.313-0.563,0.494-0.829c0.194-0.283,0.394-0.56,0.601-0.824c0.207-0.267,0.424-0.522,0.649-0.766
	c0.091-0.097,0.185-0.19,0.282-0.281l0.09,0.133c0.138,0.213,0.267,0.431,0.389,0.648c0.244,0.438,0.458,0.892,0.613,1.353
	c0.306,0.947,0.472,1.934,0.496,2.93l-0.022,4.004L123,16.671c0.173-0.602,0.299-1.216,0.376-1.838
	c0.077-0.619,0.113-1.256,0.038-1.912c-0.041-0.328-0.103-0.656-0.229-1.001l-0.045-0.113l-0.047-0.112l-0.092-0.211
	c-0.062-0.141-0.126-0.283-0.191-0.422c-0.199-0.428-0.43-0.84-0.692-1.231l-0.123-0.187l-0.058-0.089l-0.022-0.039l-0.019-0.029
	c-0.089-0.17-0.128-0.362-0.11-0.553c0.012-0.214,0.074-0.448,0.171-0.683c0.195-0.472,0.507-0.933,0.86-1.371
	c0.355-0.442,0.738-0.862,1.153-1.247c0.306-0.285,0.63-0.548,0.973-0.789c0.021-0.016,0.042-0.026,0.062-0.041
	c0.019,0.015,0.038,0.025,0.059,0.041c0.111,0.077,0.226,0.157,0.335,0.244c0.221,0.172,0.435,0.354,0.64,0.545
	c0.411,0.383,0.8,0.805,1.153,1.246c0.353,0.44,0.663,0.898,0.86,1.371c0.095,0.236,0.155,0.469,0.17,0.682
	c0.017,0.191-0.023,0.383-0.113,0.553c-0.029,0.053-0.063,0.106-0.096,0.157l-0.124,0.187c-0.086,0.13-0.168,0.261-0.25,0.395
	c-0.164,0.275-0.309,0.556-0.44,0.837c-0.068,0.14-0.131,0.279-0.194,0.422l-0.09,0.212l-0.044,0.105
	c-0.019,0.041-0.034,0.082-0.048,0.123c-0.124,0.334-0.188,0.668-0.227,0.996c-0.076,0.658-0.041,1.294,0.035,1.913
	c0.037,0.313,0.092,0.619,0.153,0.923c0.062,0.307,0.13,0.597,0.224,0.916l1.116,3.832l-0.02-4.006
	c0.002-0.242,0.015-0.485,0.04-0.728c0.021-0.25,0.058-0.498,0.1-0.747c0.082-0.492,0.204-0.995,0.356-1.455
	c0.154-0.461,0.366-0.914,0.612-1.353c0.122-0.218,0.252-0.435,0.389-0.646c0.028-0.046,0.063-0.09,0.09-0.135
	c0.097,0.092,0.191,0.186,0.282,0.282c0.226,0.242,0.439,0.499,0.65,0.765c0.208,0.265,0.409,0.541,0.598,0.82
	c0.186,0.273,0.355,0.553,0.496,0.832c0.141,0.282,0.255,0.563,0.322,0.84c0.072,0.276,0.1,0.552,0.082,0.826
	c-0.029,0.545-0.248,1.122-0.533,1.727c-0.145,0.301-0.297,0.609-0.457,0.919c-0.172,0.326-0.332,0.657-0.48,0.996
	c-0.301,0.69-0.567,1.429-0.688,2.251c-0.127,0.853-0.043,1.721,0.244,2.532c0.146,0.4,0.319,0.769,0.537,1.135
	c0.216,0.353,0.449,0.671,0.691,0.971c0.487,0.601,1.01,1.13,1.547,1.637c0.272,0.255,0.543,0.5,0.827,0.737
	c0.277,0.243,0.553,0.472,0.866,0.711c1.068,0.813,2.061,1.724,2.965,2.719c0.887,0.979,1.659,2.055,2.306,3.207
	c0.634,1.146,1.121,2.366,1.448,3.634c0.366,1.434,0.553,2.908,0.551,4.388v0.257l-0.002,0.133L141.937,43.753z M118.399,50.533
	c-0.884-0.882-1.629-1.896-2.236-3.017c-0.6-1.13-1.04-2.362-1.385-3.714c-0.348,1.357-0.254,2.837,0.187,4.211
	c0.443,1.396,1.216,2.666,2.254,3.699c1.033,1.04,2.303,1.813,3.7,2.257c1.373,0.443,2.854,0.533,4.211,0.184
	c-1.353-0.348-2.585-0.789-3.714-1.387C120.307,52.173,119.292,51.42,118.399,50.533 M120.671,37.71
	c0.502,0,0.912-0.726,0.912-1.623c0-0.896-0.41-1.621-0.912-1.621c-0.504,0-0.912,0.727-0.912,1.621
	C119.76,36.984,120.169,37.71,120.671,37.71 M130.015,34.467c-0.504,0-0.912,0.727-0.912,1.621c0,0.897,0.406,1.624,0.912,1.624
	c0.502,0,0.911-0.728,0.911-1.623s-0.408-1.62-0.911-1.62"/>
</svg>
