<?xml version="1.0" encoding="utf-8"?>
<!-- Generator: Adobe Illustrator 16.0.0, SVG Export Plug-In . SVG Version: 6.00 Build 0)  -->
<!DOCTYPE svg PUBLIC "-//W3C//DTD SVG 1.1//EN" "http://www.w3.org/Graphics/SVG/1.1/DTD/svg11.dtd">
<svg version="1.1" id="Слой_1" xmlns="http://www.w3.org/2000/svg" xmlns:xlink="http://www.w3.org/1999/xlink" x="0px" y="0px"
	 width="250px" height="67px" viewBox="0 0 250 67" enable-background="new 0 0 250 67" xml:space="preserve">
<path fill="#FFFFFF" d="M170.023,49.576l0.584-7.454v-0.113c0.101-1.21,0.101-1.21,0.15-2.757c0.01-0.263-0.004-0.587-0.01-0.973
	c-0.005-0.381-0.016-0.799-0.027-1.252l-0.15-5.72l7.189-0.508l-0.113,8.698l0.15,10.55L170.023,49.576L170.023,49.576z
	 M174.968,28.816c-1.146,0-2.149-0.382-3.021-1.15c-0.869-0.768-1.301-1.68-1.301-2.735c0-1.043,0.424-1.996,1.272-2.858
	c0.849-0.86,1.7-1.292,2.558-1.292c0.979,0,1.916,0.39,2.801,1.17c0.887,0.78,1.33,1.63,1.33,2.548c0,1.12-0.348,2.12-1.039,3
	c-0.69,0.88-1.561,1.32-2.603,1.32 M191.95,29.327c3.208,0,5.872,1.102,7.993,3.303c2.119,2.202,3.18,5.021,3.18,8.454
	c0,2.717-1.043,4.988-3.124,6.813c-2.084,1.824-4.651,2.736-7.71,2.736c-3.232,0-5.855-1.025-7.87-3.076
	c-2.01-2.05-3.019-4.734-3.019-8.057c0-3.107,0.953-5.58,2.858-7.417C186.166,30.246,188.729,29.327,191.95,29.327 M194.497,34.518
	l-7.931,0.699l1.703,8.68c0.932,0.314,1.93,0.547,2.992,0.697s2.229,0.229,3.5,0.229h0.51L194.497,34.518L194.497,34.518z
	 M213.82,41.971c-0.051,0.819-0.096,1.777-0.141,2.879c-0.056,1.437-0.104,2.873-0.142,4.311l-7.021,0.229
	c0.11-2.252,0.198-4.377,0.254-6.377c0.06-2,0.086-3.725,0.086-5.171v-1.397c0-1.094-0.02-2.088-0.057-2.979
	c-0.035-0.875-0.092-1.75-0.17-2.623l5.604,0.34l0.416,2.055c1.434-1.144,2.875-2.008,4.32-2.594
	c1.447-0.584,2.87-0.877,4.266-0.877c1.937,0,3.367,0.513,4.293,1.54c0.926,1.024,1.388,2.618,1.388,4.783
	c0,0.275-0.003,0.484-0.01,0.622s-0.017,0.276-0.028,0.416l-0.229,4.038c-0.035,0.904-0.063,1.796-0.074,2.67
	s-0.018,1.891-0.018,3.047c0,0.49,0.012,1.02,0.037,1.585c0.023,0.563,0.049,1.156,0.074,1.773
	c-1.316-0.083-2.635-0.149-3.953-0.198c-1.154-0.043-2.309-0.064-3.464-0.064l-0.265-14.002l-5.34,0.319l0.17,5.679L213.82,41.971z
	 M230.652,43.971l6.19,0.473l0.341,1.396l7.963,0.223l-1.188-2.828c-5.424-0.287-9.033-0.975-10.83-2.055
	c-1.8-1.082-2.7-2.92-2.7-5.512c0-2.302,0.666-3.96,2-4.972c1.334-1.014,3.58-1.52,6.737-1.52c3.006,0,5.217,0.462,6.633,1.387
	c1.415,0.926,2.28,2.456,2.597,4.595h-0.115c-2.504-0.1-4.396-0.15-5.68-0.15l-0.51-1.623h-6.02l-1.047,2.93
	c5.223,0.213,9.826,0.69,11.728,1.781c1.899,1.086,2.851,2.881,2.851,5.385c0,2.24-0.84,3.994-2.521,5.258s-4.021,1.896-7.028,1.896
	c-3.057,0-5.388-0.554-6.99-1.659c-1.604-1.107-2.408-2.725-2.408-4.851v-0.151L230.652,43.971z M164.9,31.3
	c-0.926-1.025-2.357-1.54-4.293-1.54c-1.397,0-2.82,0.294-4.266,0.88c-1.447,0.584-2.887,1.45-4.32,2.594l-0.416-2.057l-5.299-0.32
	c0.588,1.123,1.059,2.302,1.407,3.52c0.481,1.691,0.745,3.438,0.786,5.196l0.006,0.284l0.002,0.291
	c0.009,3.208-0.748,6.371-2.206,9.228l6.604-0.216c0.05-1.771,0.098-3.21,0.143-4.311c0.043-1.102,0.09-2.06,0.141-2.879
	l-0.17-5.681l5.34-0.319l0.265,14.002c1.108,0,2.263,0.021,3.463,0.066c1.2,0.042,2.521,0.107,3.954,0.195
	c-0.025-0.616-0.05-1.207-0.077-1.772c-0.022-0.528-0.034-1.058-0.036-1.586c0-1.155,0.006-2.172,0.018-3.047
	c0.014-0.875,0.039-1.765,0.076-2.67l0.227-4.04c0.013-0.138,0.021-0.275,0.027-0.413c0.008-0.14,0.011-0.347,0.011-0.623
	c0-2.165-0.464-3.76-1.388-4.784"/>
<path fill="#FFFFFF" d="M23.356,33.008c-2.918-1.605-7.485-2.406-13.7-2.406l-2.522,0.137l1.617-4.8
	c1.029-0.087,2.062-0.131,3.095-0.132c1.006,0,1.963,0.03,2.87,0.085c0.904,0.058,1.78,0.148,2.622,0.274l-0.152,2.924l8.813,0.304
	c0.025-0.252,0.045-0.472,0.057-0.66c0.012-0.19,0.018-0.364,0.018-0.528c0-2.555-1.01-4.526-3.028-5.916s-4.89-2.085-8.614-2.085
	c-5.057,0-8.665,0.695-10.82,2.085C1.45,23.68,0.37,25.973,0.37,29.17c0,1.873,0.37,3.474,1.113,4.802
	c0.742,1.326,1.856,2.367,3.34,3.124c1.61,0.829,4.586,1.389,8.926,1.68c1.964,0.125,3.48,0.25,4.55,0.377
	c0.037,0.642,0.065,1.166,0.084,1.574c0.018,0.409,0.028,0.719,0.028,0.935c0,0.417,0.026,2.51-0.012,3.604
	c0,0.202-0.006,0.359-0.02,0.473l-8.687-1.735c-0.063-0.485-0.106-0.974-0.13-1.462c-0.026-0.512-0.04-1.025-0.04-1.538
	l-9.076-0.415c-0.012,0.125-0.02,0.245-0.028,0.357c-0.007,0.115-0.01,0.234-0.01,0.359c0,2.93,1.25,5.219,3.755,6.86
	c2.504,1.64,6.007,2.46,10.51,2.46c4.152,0,7.366-0.883,9.643-2.65c2.278-1.767,3.416-4.25,3.416-7.443
	c0-3.412-1.46-5.92-4.378-7.522 M46.057,42.887h-3.87l0.153,2.62l-3.586-0.034l0.303-9.965l5.85-0.076l0.34-5.188l-5.87-0.227
	l0.227-5.643l-7.47-0.877l1.016,7.37l-3.284-0.077l-0.226,4.134l3.038,0.32c-0.315,1.975-0.535,3.663-0.66,5.066
	c-0.124,1.357-0.187,2.72-0.19,4.084v0.813c0,0.793,0.076,1.396,0.228,1.813c0.15,0.414,0.402,0.806,0.754,1.168
	c0.75,0.786,1.674,1.385,2.698,1.748c1.058,0.383,2.31,0.574,3.756,0.574c2.25,0,3.972-0.463,5.16-1.387
	c1.19-0.925,1.784-2.255,1.784-3.99c0-0.43-0.012-0.828-0.037-1.199S46.108,43.213,46.057,42.887 M62.248,29.94
	c0.075,1.712,0.132,3.136,0.17,4.274c0.037,1.14,0.056,1.979,0.056,2.521c0,1.31-0.015,2.604-0.047,3.89
	c-0.032,1.28-0.08,2.577-0.14,3.886h-6.172l0.452-14.02h-3.83l-4.02-0.21l0.397,6.701v0.527c0,0.381-0.032,1.19-0.094,2.436
	c-0.058,1.057-0.09,2.113-0.095,3.171c0,2.352,0.636,4.145,1.906,5.377c1.272,1.233,3.108,1.85,5.51,1.85
	c1.36,0,2.66-0.26,3.898-0.782c1.24-0.52,2.387-1.285,3.444-2.293l0.226,1.381l5.888,0.149L69.589,38.68l0.208-8.55L62.248,29.94
	L62.248,29.94z M95.214,37.32v-1.736l0.038-8.077v-1.435c0-1.106,0.02-2.092,0.057-2.953c0.037-0.861,0.093-1.695,0.17-2.502
	c-0.14,0.014-0.322,0.02-0.55,0.02c-1.093,0.05-1.848,0.075-2.263,0.075c-0.742,0-2.02-0.044-3.83-0.132
	c-0.195-0.009-0.39-0.021-0.585-0.036c0.244,1.77,0.42,3.547,0.528,5.33c0.113,1.844,0.17,3.74,0.17,5.69
	c-0.75-0.769-1.654-1.37-2.652-1.765c-1-0.398-2.11-0.595-3.33-0.595c-2.97,0-5.31,0.91-7.02,2.735
	c-1.71,1.824-2.567,4.329-2.567,7.51c0,3.51,0.747,6.127,2.238,7.85c1.49,1.725,3.758,2.588,6.803,2.588
	c1.258,0,2.447-0.193,3.567-0.576c1.12-0.385,2.007-0.903,2.66-1.56l0.567,1.51c0.49-0.021,0.955-0.042,1.396-0.055
	c0.44-0.013,0.868-0.021,1.284-0.021c0.3,0,1.005,0.014,2.113,0.039c0.654,0.014,1.17,0.024,1.548,0.036
	c-0.114-1.735-0.2-3.61-0.256-5.622c-0.057-2.011-0.086-4.121-0.086-6.32 M87.289,43.922h-7.115l0.075-7.964l8.144-0.114
	L87.289,43.922L87.289,43.922z M104.9,43.658c-0.167-0.966-0.264-1.942-0.29-2.922l-0.008-0.297v-0.293
	c0-0.39,0.01-0.774,0.032-1.164c0.085-1.549,0.328-3.103,0.762-4.609c0.365-1.277,0.87-2.518,1.498-3.687l-7.037,0.5l0.15,5.716
	c0.012,0.453,0.022,0.871,0.03,1.255c0.005,0.385,0.008,0.71,0.008,0.974c0,0.63-0.05,1.547-0.15,2.754V42l-0.586,7.45l7.774,0.475
	v-0.032c-1.068-1.943-1.807-4.05-2.185-6.234 M101.234,27.545c0.868,0.767,1.874,1.15,3.02,1.15c1.043,0,1.912-0.44,2.603-1.32
	c0.682-0.851,1.048-1.91,1.038-3c0-0.92-0.444-1.77-1.33-2.548c-0.887-0.78-1.82-1.172-2.803-1.172
	c-0.855,0-1.708,0.433-2.557,1.294c-0.85,0.86-1.273,1.813-1.273,2.857C99.932,25.864,100.366,26.776,101.234,27.545
	 M145.795,39.605l-0.006-0.269c-0.005-0.19-0.016-0.37-0.023-0.555c-0.076-1.473-0.316-2.932-0.719-4.351
	c-0.408-1.424-0.996-2.798-1.744-4.07s-1.65-2.446-2.664-3.492c-1.009-1.037-2.11-1.979-3.291-2.814
	c-0.529-0.384-1.04-0.793-1.531-1.224c-0.488-0.422-0.949-0.874-1.381-1.353c-0.2-0.225-0.386-0.461-0.556-0.71
	c-0.155-0.233-0.287-0.481-0.394-0.74c-0.207-0.503-0.286-1.05-0.228-1.592c0.054-0.566,0.229-1.168,0.464-1.767
	c0.06-0.15,0.119-0.298,0.186-0.448l0.203-0.46c0.143-0.316,0.285-0.638,0.424-0.975c0.135-0.338,0.268-0.69,0.365-1.072
	c0.103-0.378,0.17-0.79,0.172-1.21c0.002-0.419-0.063-0.836-0.189-1.236c-0.121-0.377-0.283-0.741-0.484-1.082
	c-0.189-0.322-0.4-0.631-0.631-0.924c-0.222-0.285-0.449-0.56-0.689-0.828c-0.238-0.268-0.488-0.53-0.756-0.782
	c-0.135-0.126-0.275-0.248-0.42-0.366c-0.074-0.061-0.151-0.119-0.229-0.176c-0.04-0.028-0.08-0.058-0.122-0.086l-0.068-0.045
	l-0.037-0.02l-0.051-0.03l-0.414-0.245l-0.289,0.38v0.002c-0.18,0.23-0.324,0.445-0.475,0.675c-0.316,0.482-0.594,0.99-0.826,1.518
	c0.021-0.068,0.034-0.137,0.059-0.2l0.029-0.082l0.041-0.097l0.084-0.192c0.057-0.13,0.112-0.255,0.174-0.38
	c0.117-0.25,0.24-0.492,0.382-0.723c0.067-0.116,0.142-0.23,0.22-0.35l0.12-0.183c0.042-0.067,0.073-0.112,0.134-0.216
	c0.2-0.355,0.27-0.77,0.248-1.138c-0.026-0.351-0.11-0.695-0.248-1.018c-0.256-0.614-0.617-1.133-0.996-1.604
	c-0.38-0.476-0.787-0.922-1.236-1.338c-0.223-0.209-0.456-0.407-0.697-0.595c-0.184-0.146-0.375-0.281-0.573-0.407l-0.104-0.064
	c-0.037-0.022-0.065-0.04-0.119-0.07l-0.258-0.14l-0.256,0.14c-0.055,0.03-0.084,0.048-0.121,0.07l-0.103,0.064
	c-0.197,0.127-0.389,0.263-0.573,0.407c-0.244,0.19-0.477,0.387-0.701,0.595c-0.446,0.416-0.857,0.864-1.234,1.337
	c-0.38,0.474-0.74,0.99-0.997,1.605c-0.138,0.323-0.222,0.667-0.248,1.018c-0.024,0.368,0.046,0.782,0.248,1.138l0.038,0.065
	l0.035,0.058l0.06,0.094l0.12,0.183c0.228,0.341,0.429,0.7,0.6,1.072c0.063,0.126,0.12,0.252,0.175,0.38l0.083,0.195l0.04,0.09
	c0.013,0.032,0.03,0.073,0.035,0.092c0.022,0.062,0.038,0.13,0.057,0.197c-0.233-0.528-0.509-1.036-0.826-1.518
	c-0.15-0.23-0.296-0.444-0.474-0.676l-0.286-0.382l-0.417,0.245l-0.053,0.03l-0.036,0.02l-0.067,0.046
	c-0.043,0.028-0.084,0.058-0.123,0.086c-0.227,0.167-0.444,0.349-0.65,0.542c-0.266,0.25-0.516,0.515-0.755,0.782
	c-0.238,0.27-0.467,0.545-0.685,0.824c-0.23,0.296-0.44,0.596-0.634,0.928c-0.192,0.33-0.362,0.69-0.485,1.08
	c-0.122,0.39-0.19,0.815-0.19,1.236c0.002,0.422,0.072,0.833,0.172,1.21c0.1,0.382,0.232,0.735,0.368,1.073
	c0.137,0.337,0.28,0.66,0.423,0.976l0.203,0.46c0.065,0.15,0.127,0.298,0.184,0.448c0.232,0.6,0.41,1.2,0.464,1.768
	c0.059,0.542-0.019,1.089-0.226,1.592c-0.052,0.13-0.113,0.256-0.18,0.382l-0.05,0.096l-0.056,0.095l-0.108,0.17
	c-0.158,0.235-0.35,0.474-0.556,0.707c-0.415,0.467-0.885,0.92-1.38,1.353c-0.49,0.43-1.017,0.852-1.535,1.227
	c-1.179,0.835-2.279,1.776-3.286,2.812c-1.023,1.053-1.918,2.225-2.664,3.49c-0.751,1.278-1.337,2.646-1.744,4.072
	c-0.402,1.418-0.644,2.877-0.72,4.35c-0.02,0.365-0.03,0.73-0.03,1.097v0.277l0.006,0.28c0.024,0.924,0.116,1.846,0.274,2.758
	c0.498,2.92,1.71,5.72,3.484,8.102c1.783,2.396,4.099,4.344,6.765,5.69c2.66,1.34,5.64,2.04,8.614,2.038h0.011l0.262-0.002
	l0.287-0.006c0.558-0.018,1.114-0.059,1.668-0.121c2.224-0.259,4.386-0.904,6.388-1.909c2.664-1.347,4.98-3.295,6.764-5.69
	c2.459-3.297,3.779-7.303,3.767-11.416l-0.005-0.277L145.795,39.605z M143.186,39.752v0.109c-0.017,0.959-0.115,1.912-0.293,2.854
	c-0.982,5.078-4.274,9.409-8.906,11.713c-1.135,0.564-2.33,0.996-3.564,1.286c-1.08,0.251-2.184,0.394-3.292,0.422l-0.229,0.007
	l-0.248,0.002c-2.543,0.004-5.053-0.583-7.332-1.715c-2.282-1.137-4.272-2.782-5.817-4.811c-2.04-2.679-3.214-5.916-3.365-9.28
	l-0.01-0.235l-0.005-0.242c-0.004-0.322-0.002-0.646,0.006-0.969c0.033-1.283,0.21-2.559,0.528-3.803
	c0.32-1.235,0.795-2.427,1.415-3.545c0.63-1.125,1.385-2.174,2.25-3.13c0.87-0.97,1.844-1.848,2.898-2.658
	c0.569-0.444,1.118-0.915,1.644-1.41c0.54-0.499,1.045-1.034,1.512-1.6c0.236-0.292,0.464-0.603,0.675-0.948
	c0.052-0.09,0.1-0.173,0.156-0.277l0.068-0.132l0.066-0.134c0.086-0.182,0.164-0.37,0.233-0.565c0.283-0.791,0.365-1.639,0.24-2.47
	c-0.118-0.805-0.377-1.524-0.67-2.197c-0.076-0.168-0.152-0.334-0.23-0.497c-0.08-0.166-0.164-0.323-0.24-0.474
	c-0.157-0.305-0.31-0.604-0.448-0.898c-0.278-0.59-0.49-1.153-0.52-1.686c-0.016-0.268,0.01-0.534,0.08-0.806
	c0.07-0.272,0.18-0.545,0.316-0.82c0.144-0.28,0.305-0.55,0.482-0.81c0.19-0.276,0.384-0.545,0.587-0.804
	c0.202-0.26,0.414-0.51,0.633-0.747c0.089-0.094,0.181-0.186,0.275-0.275l0.088,0.13c0.134,0.208,0.26,0.42,0.38,0.633
	c0.238,0.428,0.446,0.87,0.598,1.32c0.299,0.925,0.461,1.888,0.484,2.86l-0.022,3.908l1.092-3.74
	c0.169-0.587,0.292-1.187,0.367-1.794c0.075-0.605,0.11-1.226,0.037-1.867c-0.04-0.32-0.1-0.64-0.223-0.977l-0.044-0.11l-0.046-0.11
	l-0.09-0.206c-0.06-0.138-0.123-0.276-0.187-0.412c-0.194-0.417-0.42-0.819-0.675-1.202l-0.12-0.182l-0.056-0.087l-0.022-0.038
	l-0.018-0.028c-0.087-0.166-0.125-0.354-0.108-0.54c0.012-0.208,0.073-0.438,0.167-0.666c0.19-0.46,0.495-0.91,0.84-1.338
	c0.346-0.433,0.72-0.842,1.125-1.218c0.299-0.278,0.615-0.535,0.949-0.77c0.021-0.015,0.041-0.026,0.061-0.04
	c0.018,0.014,0.037,0.025,0.057,0.04c0.109,0.075,0.221,0.154,0.327,0.238c0.216,0.168,0.425,0.346,0.625,0.532
	c0.401,0.374,0.78,0.785,1.125,1.217c0.345,0.43,0.647,0.877,0.84,1.338c0.093,0.23,0.152,0.458,0.166,0.665
	c0.017,0.187-0.022,0.374-0.11,0.54c-0.029,0.052-0.062,0.103-0.095,0.153l-0.12,0.182c-0.084,0.127-0.165,0.255-0.244,0.386
	c-0.16,0.268-0.302,0.542-0.43,0.816c-0.066,0.137-0.128,0.273-0.189,0.412l-0.088,0.207l-0.043,0.103
	c-0.018,0.04-0.033,0.08-0.047,0.12c-0.121,0.326-0.184,0.652-0.221,0.973c-0.074,0.642-0.04,1.262,0.034,1.867
	c0.036,0.304,0.09,0.604,0.149,0.9c0.061,0.3,0.127,0.583,0.219,0.895l1.09,3.74l-0.02-3.91c0.002-0.237,0.015-0.474,0.039-0.71
	c0.022-0.244,0.057-0.487,0.098-0.73c0.08-0.48,0.199-0.97,0.348-1.42c0.15-0.45,0.357-0.892,0.598-1.32
	c0.119-0.213,0.245-0.424,0.379-0.63c0.028-0.045,0.061-0.088,0.088-0.132c0.094,0.09,0.187,0.182,0.275,0.276
	c0.221,0.236,0.43,0.487,0.635,0.747c0.203,0.258,0.399,0.527,0.584,0.8c0.18,0.267,0.346,0.54,0.484,0.812
	c0.137,0.275,0.248,0.55,0.314,0.82c0.07,0.27,0.097,0.538,0.08,0.806c-0.029,0.532-0.242,1.096-0.52,1.686
	c-0.141,0.294-0.29,0.594-0.447,0.897c-0.168,0.318-0.324,0.642-0.468,0.972c-0.294,0.674-0.554,1.394-0.672,2.197
	c-0.124,0.832-0.042,1.68,0.239,2.472c0.141,0.39,0.311,0.75,0.523,1.107c0.211,0.345,0.438,0.655,0.676,0.948
	c0.475,0.586,0.985,1.103,1.51,1.598c0.265,0.248,0.529,0.487,0.806,0.72c0.272,0.237,0.54,0.46,0.845,0.693
	c1.043,0.794,2.012,1.683,2.895,2.654c0.865,0.955,1.62,2.005,2.25,3.13c0.619,1.118,1.095,2.31,1.414,3.547
	c0.358,1.399,0.539,2.839,0.537,4.283v0.25l-0.002,0.13L143.186,39.752z"/>
<path fill="#FFFFFF" d="M120.21,46.37c-0.863-0.86-1.59-1.851-2.183-2.944c-0.585-1.103-1.015-2.306-1.352-3.625
	c-0.34,1.325-0.248,2.77,0.182,4.11c0.432,1.362,1.187,2.602,2.2,3.61c1.008,1.016,2.248,1.771,3.612,2.203
	c1.34,0.433,2.785,0.521,4.11,0.18c-1.32-0.34-2.523-0.77-3.625-1.353c-1.081-0.581-2.073-1.315-2.945-2.18 M122.428,33.854
	c0.49,0,0.89-0.708,0.89-1.584c0-0.874-0.4-1.583-0.89-1.583c-0.492,0-0.89,0.71-0.89,1.583
	C121.538,33.146,121.938,33.854,122.428,33.854 M131.548,30.688c-0.491,0-0.89,0.71-0.89,1.583c0,0.876,0.396,1.585,0.89,1.585
	c0.49,0,0.89-0.71,0.89-1.584s-0.399-1.582-0.89-1.582 M5.973,59.305v0.58c-0.275-0.326-0.617-0.592-1.003-0.775
	c-0.377-0.18-0.79-0.273-1.208-0.273c-0.838,0-1.538,0.3-2.097,0.896c-0.56,0.597-0.84,1.317-0.84,2.164
	c0,0.84,0.28,1.553,0.844,2.136c0.563,0.584,1.263,0.875,2.102,0.875c0.406,0,0.802-0.091,1.19-0.271
	c0.385-0.18,0.722-0.427,1.01-0.74v0.58c-0.598,0.54-1.377,0.836-2.182,0.83c-0.968-0.007-1.782-0.343-2.44-1.01
	c-0.658-0.667-0.985-1.474-0.978-2.42c0-0.96,0.33-1.771,0.987-2.438c0.658-0.662,1.462-0.998,2.412-1.004
	c0.438,0,0.845,0.08,1.218,0.24c0.374,0.16,0.7,0.37,0.983,0.631 M10.462,58.926H8.764v6.27H8.33v-6.27h-1.7v-0.4h3.832V58.926z
	 M10.738,58.525h0.49l2.272,4.322l1.924-4.322h0.443l-2.997,6.67h-0.416l0.814-1.83L10.738,58.525z M16.83,58.525h3.695v6.27h0.746
	v1.74h-0.412v-1.34h-4.892v1.34h-0.413v-1.74c0.196,0.014,0.39-0.059,0.58-0.215c0.19-0.156,0.343-0.385,0.46-0.686
	c0.08-0.205,0.137-0.451,0.173-0.734s0.057-0.622,0.064-1.016v-3.621L16.83,58.525z M17.262,58.925v3.22
	c0,0.453-0.02,0.824-0.06,1.11c-0.031,0.256-0.09,0.507-0.175,0.75c-0.066,0.16-0.14,0.306-0.222,0.435
	c-0.08,0.131-0.175,0.25-0.28,0.355h3.567v-5.87H17.262L17.262,58.925z M26.97,65.195V59.63l-4.677,5.735v-6.84h0.432v5.67
	l4.678-5.74v6.74H26.97z M28.624,65.195l1.982-2.99c-0.13,0-0.26-0.014-0.388-0.04c-0.12-0.024-0.237-0.062-0.35-0.11
	c-0.309-0.12-0.573-0.333-0.756-0.609c-0.195-0.286-0.294-0.646-0.294-1.08c0-0.354,0.078-0.666,0.236-0.938
	c0.157-0.272,0.364-0.485,0.62-0.64c0.167-0.091,0.345-0.156,0.53-0.196c0.196-0.042,0.428-0.063,0.697-0.063h1.12v6.671h-0.43
	v-2.99h-0.486l-1.97,2.99h-0.51L28.624,65.195z M31.588,58.925H30.9c-0.197,0.007-0.367,0.022-0.51,0.046
	c-0.133,0.02-0.263,0.059-0.384,0.116c-0.231,0.107-0.422,0.286-0.545,0.511c-0.129,0.234-0.195,0.5-0.19,0.77
	c0,0.24,0.036,0.453,0.112,0.64c0.075,0.188,0.18,0.337,0.32,0.45c0.13,0.12,0.29,0.21,0.475,0.27
	c0.188,0.061,0.408,0.088,0.664,0.08h0.748v-2.88L31.588,58.925z M36.078,65.195v-6.67h1.435c0.557,0,0.998,0.151,1.322,0.459
	c0.324,0.309,0.487,0.711,0.487,1.211c0,0.313-0.065,0.596-0.192,0.846c-0.128,0.25-0.32,0.455-0.575,0.615
	c0.42,0.072,0.75,0.263,0.992,0.564c0.243,0.305,0.364,0.672,0.364,1.104c-0.006,0.579-0.196,1.036-0.57,1.37
	c-0.373,0.332-0.86,0.5-1.464,0.5H36.078L36.078,65.195z M36.511,58.925v2.62h1.038c0.203,0,0.37-0.02,0.504-0.061
	c0.133-0.039,0.263-0.112,0.387-0.219c0.13-0.113,0.232-0.257,0.307-0.427c0.079-0.188,0.121-0.392,0.123-0.596
	c-0.004-0.206-0.046-0.409-0.123-0.601c-0.069-0.17-0.178-0.32-0.318-0.439c-0.13-0.095-0.277-0.164-0.432-0.205
	c-0.215-0.05-0.435-0.074-0.655-0.075H36.51L36.511,58.925z M36.511,61.945v2.85h1.102c0.38,0,0.67-0.029,0.874-0.09
	c0.205-0.061,0.393-0.166,0.55-0.311c0.144-0.127,0.25-0.276,0.32-0.449c0.07-0.182,0.105-0.375,0.103-0.57
	c0-0.3-0.06-0.553-0.173-0.76c-0.12-0.212-0.304-0.38-0.526-0.48c-0.167-0.072-0.344-0.121-0.525-0.145
	c-0.232-0.031-0.467-0.047-0.702-0.045H36.51H36.511z M44.47,58.525v0.399h-2.713v2.421h2.654v0.399h-2.653v3.05h2.713v0.4h-3.145
	v-6.67H44.47z M45.885,65.195v-6.67h3.154v0.399h-2.723v2.47h1.14c0.746,0,1.31,0.155,1.69,0.465c0.38,0.311,0.57,0.766,0.57,1.365
	c0,0.627-0.193,1.112-0.58,1.455c-0.387,0.344-0.9,0.514-1.542,0.514h-1.71L45.885,65.195z M46.317,61.795v3h1.1
	c0.36,0.008,0.65-0.023,0.865-0.094c0.217-0.07,0.407-0.186,0.57-0.346c0.132-0.133,0.233-0.295,0.305-0.483
	c0.074-0.207,0.111-0.425,0.108-0.646c0-0.3-0.057-0.55-0.172-0.75c-0.114-0.199-0.283-0.359-0.506-0.479
	c-0.151-0.075-0.313-0.126-0.48-0.149c-0.255-0.032-0.511-0.049-0.768-0.051h-1.023L46.317,61.795z M58.678,59.305v0.58
	c-0.275-0.326-0.617-0.592-1.002-0.775c-0.377-0.18-0.791-0.273-1.21-0.273c-0.837,0-1.536,0.3-2.096,0.896s-0.84,1.317-0.84,2.164
	c0,0.84,0.28,1.553,0.844,2.136c0.563,0.584,1.265,0.875,2.103,0.875c0.407,0,0.803-0.091,1.19-0.271
	c0.385-0.18,0.723-0.427,1.01-0.74v0.58c-0.29,0.263-0.626,0.469-0.99,0.61c-0.374,0.146-0.77,0.22-1.19,0.22
	c-0.97-0.007-1.784-0.343-2.442-1.01c-0.658-0.667-0.984-1.474-0.978-2.42c0-0.96,0.33-1.771,0.988-2.438
	c0.66-0.662,1.463-0.998,2.412-1.004c0.44,0,0.845,0.08,1.218,0.24c0.374,0.16,0.702,0.37,0.983,0.631 M63.13,58.436
	c0.955,0,1.76,0.332,2.416,1c0.655,0.666,0.983,1.48,0.983,2.44c-0.008,0.966-0.34,1.78-0.993,2.438
	c-0.656,0.66-1.458,0.99-2.408,0.99c-0.958,0-1.764-0.33-2.418-0.99c-0.656-0.66-0.983-1.474-0.983-2.44
	c0-0.96,0.325-1.771,0.977-2.435s1.46-0.998,2.422-1.004 M63.126,64.904c0.838,0,1.538-0.289,2.1-0.869s0.847-1.301,0.847-2.16
	c-0.007-0.855-0.29-1.573-0.85-2.16s-1.26-0.88-2.098-0.88c-0.846,0-1.55,0.293-2.11,0.88s-0.84,1.307-0.84,2.16
	c0,0.859,0.28,1.58,0.84,2.16S62.279,64.904,63.126,64.904 M68.396,59.654l-0.314-0.27c0.184-0.314,0.425-0.55,0.727-0.71
	c0.3-0.159,0.65-0.239,1.05-0.239c0.236,0,0.452,0.035,0.65,0.104c0.196,0.07,0.375,0.178,0.54,0.324
	c0.157,0.16,0.275,0.34,0.353,0.539c0.08,0.201,0.118,0.421,0.118,0.66c0,0.313-0.073,0.598-0.22,0.851
	c-0.153,0.26-0.375,0.471-0.643,0.61c0.418,0.106,0.742,0.319,0.972,0.64c0.228,0.319,0.343,0.694,0.343,1.12
	c-0.006,0.333-0.076,0.64-0.206,0.92c-0.13,0.279-0.312,0.508-0.54,0.68c-0.19,0.146-0.417,0.252-0.68,0.316
	c-0.26,0.063-0.51,0.098-0.745,0.104c-0.466,0.001-0.924-0.127-1.323-0.369c-0.396-0.248-0.707-0.611-0.89-1.041l0.414-0.199
	c0.144,0.367,0.384,0.66,0.72,0.88c0.504,0.335,1.134,0.422,1.71,0.235c0.214-0.063,0.39-0.147,0.527-0.256
	c0.184-0.14,0.32-0.32,0.414-0.539c0.092-0.221,0.14-0.463,0.147-0.73c0-0.46-0.155-0.82-0.466-1.083s-0.738-0.396-1.282-0.396
	h-0.59v-0.4h0.59c0.34,0,0.642-0.119,0.904-0.363c0.262-0.244,0.393-0.566,0.393-0.975c0-0.181-0.028-0.34-0.08-0.48
	c-0.052-0.139-0.128-0.268-0.226-0.38c-0.112-0.12-0.25-0.215-0.403-0.274c-0.175-0.066-0.362-0.099-0.55-0.095
	c-0.307,0-0.578,0.07-0.814,0.21c-0.237,0.141-0.437,0.344-0.6,0.61 M78.065,65.195V59.63l-4.678,5.735v-6.84h0.433v5.67l4.677-5.74
	v6.74H78.065z M80.795,58.525h3.695v6.27h0.746v1.74h-0.413v-1.34H79.93v1.34h-0.412v-1.74c0.196,0.014,0.39-0.059,0.58-0.215
	s0.343-0.385,0.46-0.686c0.08-0.205,0.137-0.451,0.173-0.734c0.037-0.283,0.058-0.622,0.065-1.016v-3.621L80.795,58.525z
	 M81.228,58.925v3.22c0,0.453-0.02,0.824-0.06,1.11c-0.031,0.256-0.089,0.507-0.175,0.75c-0.066,0.16-0.14,0.306-0.222,0.435
	c-0.08,0.131-0.174,0.25-0.28,0.355h3.568v-5.87H81.228L81.228,58.925z M90.518,65.195l-0.86-2.19H86.85l-0.87,2.19h-0.468
	l2.762-6.87l2.72,6.87H90.518z M87.008,62.605h2.494l-1.24-3.154L87.008,62.605L87.008,62.605z M92.45,58.525v2.83h3.97v-2.83h0.43
	v6.67h-0.43v-3.44h-3.97v3.44h-0.433v-6.67H92.45z M103.297,65.195V59.63l-4.677,5.735v-6.84h0.432v5.67l4.677-5.74v6.74H103.297z
	 M104.95,65.195l1.982-2.99c-0.13,0-0.26-0.014-0.387-0.04c-0.12-0.024-0.237-0.062-0.35-0.11c-0.308-0.119-0.56-0.322-0.756-0.609
	c-0.197-0.286-0.295-0.646-0.295-1.08c0-0.354,0.078-0.666,0.235-0.938c0.148-0.263,0.362-0.483,0.62-0.64
	c0.156-0.088,0.334-0.153,0.53-0.196c0.196-0.043,0.43-0.063,0.698-0.063h1.12v6.671h-0.433v-2.99h-0.485l-1.97,2.99h-0.51
	L104.95,65.195z M107.915,58.925h-0.688c-0.171,0.005-0.341,0.02-0.51,0.046c-0.133,0.02-0.262,0.059-0.384,0.116
	c-0.231,0.108-0.423,0.286-0.546,0.511c-0.128,0.227-0.19,0.481-0.19,0.77c0,0.24,0.036,0.453,0.112,0.64
	c0.074,0.188,0.18,0.337,0.318,0.45c0.13,0.12,0.29,0.21,0.476,0.27c0.188,0.061,0.408,0.088,0.663,0.08h0.747v-2.88L107.915,58.925
	z M147.542,58.525h3.587v6.27h0.725v1.74h-0.4v-1.34h-4.75v1.34h-0.4v-1.74c0.19,0.014,0.377-0.059,0.563-0.215
	c0.185-0.156,0.335-0.385,0.449-0.686c0.074-0.205,0.131-0.451,0.166-0.734s0.057-0.622,0.063-1.016v-3.621L147.542,58.525z
	 M147.962,58.925v3.22c0,0.453-0.021,0.824-0.06,1.11c-0.03,0.255-0.088,0.507-0.17,0.75c-0.063,0.16-0.135,0.306-0.215,0.435
	c-0.08,0.131-0.17,0.25-0.27,0.355h3.46v-5.87H147.962L147.962,58.925z M156.98,65.195l-0.836-2.19h-2.727l-0.846,2.19h-0.452
	l2.68-6.87l2.642,6.87h-0.463H156.98z M153.572,62.605h2.421l-1.202-3.154l-1.217,3.154H153.572z M159.675,62.025h-0.819v3.17h-0.42
	v-6.67h1.229c0.54,0,0.983,0.151,1.335,0.459c0.35,0.309,0.523,0.733,0.523,1.281c0,0.553-0.17,0.983-0.51,1.295
	C160.673,61.87,160.227,62.025,159.675,62.025 M158.855,58.925v2.7h0.838c0.414,0,0.75-0.12,1.007-0.359
	c0.257-0.24,0.387-0.57,0.387-0.99c0-0.412-0.13-0.74-0.387-0.98s-0.615-0.361-1.073-0.368h-0.773L158.855,58.925z M167.23,65.195
	V59.63l-4.543,5.735v-6.84h0.42v5.67l4.541-5.74v6.74H167.23z M169.721,65.195h-0.423l0.726-6.9l2.756,6.172l2.756-6.172l0.725,6.9
	h-0.42l-0.563-5.355l-2.5,5.596l-2.498-5.596L169.721,65.195z M185.234,59.305v0.58c-0.265-0.325-0.596-0.59-0.973-0.775
	c-0.365-0.18-0.767-0.273-1.174-0.273c-0.814,0-1.492,0.3-2.035,0.896c-0.545,0.597-0.816,1.317-0.816,2.164
	c0,0.84,0.273,1.553,0.82,2.136c0.547,0.584,1.228,0.875,2.039,0.875c0.397,0,0.78-0.091,1.156-0.271s0.703-0.427,0.98-0.74v0.58
	c-0.277,0.26-0.601,0.465-0.963,0.61c-0.361,0.146-0.746,0.22-1.152,0.22c-0.939-0.007-1.732-0.343-2.37-1.01
	c-0.64-0.667-0.955-1.474-0.95-2.42c0-0.96,0.32-1.771,0.96-2.438c0.604-0.647,1.454-1.012,2.341-1.004
	c0.426,0,0.819,0.08,1.182,0.24c0.365,0.16,0.683,0.37,0.955,0.631 M187.21,58.525h3.586v6.67h-0.42v-6.271h-2.746v3.88
	c0,0.614-0.034,1.063-0.104,1.35c-0.07,0.289-0.187,0.521-0.344,0.701c-0.121,0.133-0.263,0.231-0.424,0.299
	c-0.162,0.066-0.328,0.101-0.502,0.101c-0.059-0.001-0.118-0.008-0.176-0.021c-0.066-0.014-0.137-0.025-0.206-0.039v-0.4
	c0.114,0.039,0.233,0.06,0.353,0.061c0.117,0,0.229-0.021,0.336-0.063c0.108-0.044,0.206-0.11,0.287-0.194
	c0.119-0.121,0.209-0.293,0.267-0.521c0.057-0.229,0.088-0.65,0.095-1.272L187.21,58.525L187.21,58.525z M195.564,58.525v0.399
	h-2.631v2.421h2.573v0.399h-2.573v3.05h2.629v0.4h-3.049v-6.67H195.564z M197.377,59.654l-0.307-0.27
	c0.181-0.314,0.414-0.55,0.707-0.71c0.293-0.159,0.634-0.239,1.021-0.239c0.229,0,0.44,0.035,0.63,0.104
	c0.19,0.07,0.366,0.178,0.525,0.324c0.152,0.16,0.268,0.34,0.343,0.539c0.077,0.201,0.115,0.421,0.115,0.66
	c0,0.313-0.072,0.598-0.216,0.851c-0.143,0.255-0.35,0.457-0.623,0.61c0.406,0.106,0.722,0.319,0.943,0.64
	c0.223,0.319,0.334,0.694,0.334,1.12c-0.007,0.333-0.072,0.64-0.201,0.92c-0.125,0.279-0.301,0.508-0.522,0.68
	c-0.194,0.152-0.42,0.26-0.66,0.316c-0.236,0.061-0.479,0.096-0.723,0.104c-0.478-0.006-0.904-0.13-1.282-0.369
	c-0.378-0.24-0.666-0.588-0.863-1.041l0.4-0.199c0.141,0.367,0.374,0.66,0.699,0.88c0.486,0.335,1.102,0.422,1.66,0.235
	c0.207-0.063,0.377-0.147,0.513-0.256c0.178-0.14,0.31-0.32,0.399-0.539c0.088-0.221,0.135-0.463,0.144-0.73
	c0-0.46-0.149-0.82-0.453-1.083s-0.717-0.396-1.245-0.396h-0.572v-0.4h0.572c0.33,0,0.623-0.119,0.878-0.363
	c0.255-0.242,0.38-0.566,0.38-0.975c0.013-0.314-0.092-0.621-0.295-0.86c-0.107-0.12-0.24-0.214-0.39-0.274
	c-0.171-0.066-0.353-0.099-0.535-0.095c-0.3,0-0.563,0.07-0.79,0.21c-0.23,0.141-0.425,0.344-0.583,0.61 M202.221,65.195v-6.67h0.42
	v2.869h1.107c0.725,0,1.27,0.155,1.641,0.467c0.369,0.31,0.553,0.765,0.553,1.363c0,0.627-0.188,1.11-0.563,1.457
	c-0.377,0.342-0.876,0.514-1.5,0.514h-1.66H202.221z M202.641,61.795v3h1.069c0.351,0.008,0.63-0.023,0.84-0.094
	c0.208-0.07,0.394-0.186,0.552-0.346c0.129-0.133,0.228-0.295,0.297-0.485c0.07-0.19,0.104-0.405,0.104-0.646
	c0-0.301-0.056-0.551-0.167-0.75c-0.115-0.203-0.286-0.369-0.492-0.48c-0.144-0.074-0.297-0.126-0.457-0.154
	c-0.25-0.035-0.502-0.05-0.754-0.045H202.641L202.641,61.795z M206.666,58.525h0.42v6.67h-0.42V58.525z M212.266,62.025h-0.82v3.17
	h-0.42v-6.67h1.229c0.54,0,0.986,0.151,1.335,0.459c0.35,0.309,0.525,0.733,0.525,1.281c0,0.553-0.17,0.983-0.51,1.295
	C213.266,61.87,212.818,62.025,212.266,62.025 M211.445,58.925v2.7h0.84c0.412,0,0.746-0.12,1.005-0.359
	c0.257-0.24,0.387-0.57,0.387-0.99c0-0.412-0.13-0.74-0.387-0.98c-0.258-0.24-0.616-0.361-1.073-0.368h-0.773L211.445,58.925z
	 M219.029,65.195l-0.832-2.19h-2.727l-0.845,2.19h-0.453l2.681-6.87l2.642,6.87h-0.463H219.029z M215.625,62.605h2.42l-1.202-3.154
	L215.625,62.605L215.625,62.605z M221.002,58.525h3.586v6.27h0.725v1.74h-0.4v-1.34h-4.748v1.34h-0.4v-1.74
	c0.19,0.014,0.377-0.059,0.563-0.215c0.184-0.156,0.332-0.385,0.447-0.686c0.084-0.238,0.139-0.484,0.166-0.734
	c0.039-0.338,0.06-0.677,0.062-1.016v-3.621L221.002,58.525z M221.422,58.925v3.22c0,0.453-0.02,0.824-0.061,1.11
	c-0.039,0.286-0.094,0.538-0.17,0.75c-0.063,0.16-0.135,0.306-0.215,0.435c-0.08,0.131-0.17,0.25-0.27,0.355h3.46v-5.87H221.422
	L221.422,58.925z M229.26,58.436c0.93,0,1.713,0.332,2.348,1c0.636,0.666,0.953,1.48,0.953,2.44
	c-0.004,0.966-0.326,1.78-0.961,2.438c-0.637,0.66-1.416,0.99-2.338,0.99c-0.93,0-1.71-0.33-2.346-0.99
	c-0.637-0.66-0.954-1.474-0.954-2.44c0-0.96,0.317-1.771,0.95-2.435c0.63-0.664,1.416-0.998,2.35-1.004 M229.262,64.904
	c0.814,0,1.495-0.289,2.043-0.869c0.547-0.58,0.818-1.301,0.818-2.16c-0.005-0.855-0.28-1.573-0.823-2.16s-1.223-0.88-2.036-0.88
	c-0.82,0-1.5,0.293-2.043,0.88c-0.545,0.587-0.816,1.307-0.816,2.16c0,0.859,0.271,1.58,0.816,2.16
	c0.543,0.58,1.223,0.869,2.045,0.869 M239.037,59.305v0.58c-0.266-0.325-0.597-0.59-0.973-0.775
	c-0.365-0.18-0.768-0.273-1.174-0.273c-0.813,0-1.492,0.3-2.037,0.896c-0.543,0.597-0.814,1.317-0.814,2.164
	c0,0.84,0.271,1.553,0.82,2.136c0.545,0.584,1.227,0.875,2.039,0.875c0.396,0,0.781-0.091,1.154-0.271
	c0.375-0.18,0.703-0.427,0.982-0.74v0.58c-0.574,0.536-1.332,0.833-2.117,0.83c-0.941-0.007-1.732-0.343-2.372-1.01
	s-0.954-1.474-0.95-2.42c0-0.96,0.32-1.771,0.961-2.438c0.604-0.647,1.453-1.012,2.34-1.004c0.43,0,0.822,0.08,1.185,0.24
	s0.681,0.37,0.954,0.631 M243.396,58.926h-1.65v6.27h-0.42v-6.27h-1.65v-0.4h3.721V58.926z M248.928,65.195V59.63l-4.539,5.735
	v-6.84h0.42v5.67l4.539-5.74v6.74H248.928z M0.63,53.95h108v1h-108V53.95z M146.63,53.95h103v1h-103V53.95z"/>
</svg>
