<svg xmlns="http://www.w3.org/2000/svg" width="250" height="67" viewBox="0 0 250 67"><path fill="#FFF" d="M170.023 49.576l.584-7.454v-.113c.101-1.21.101-1.21.15-2.757.01-.263-.004-.587-.01-.973-.005-.381-.016-.799-.027-1.252l-.15-5.72 7.189-.508-.113 8.698.15 10.55-7.773-.471zm4.945-20.76c-1.146 0-2.149-.382-3.021-1.15-.869-.768-1.301-1.68-1.301-2.735 0-1.043.424-1.996 1.272-2.858.849-.86 1.7-1.292 2.558-1.292.979 0 1.916.39 2.801 1.17.887.78 1.33 1.63 1.33 2.548a4.73 4.73 0 0 1-1.039 3c-.69.88-1.561 1.32-2.603 1.32m16.985.508c3.208 0 5.872 1.102 7.993 3.303 2.119 2.202 3.18 5.021 3.18 8.454 0 2.717-1.043 4.988-3.124 6.813-2.084 1.824-4.651 2.736-7.71 2.736-3.232 0-5.855-1.025-7.87-3.076-2.01-2.05-3.019-4.734-3.019-8.057 0-3.107.953-5.58 2.858-7.417 1.908-1.837 4.471-2.756 7.692-2.756m2.547 5.191l-7.931.699 1.703 8.68c.932.314 1.93.547 2.992.697s2.229.229 3.5.229h.51l-.774-10.305zm19.323 7.453c-.051.819-.096 1.777-.141 2.879a344.095 344.095 0 0 0-.142 4.311l-7.021.229c.11-2.252.198-4.377.254-6.377.06-2 .086-3.725.086-5.171v-1.397c0-1.094-.02-2.088-.057-2.979a53.517 53.517 0 0 0-.17-2.623l5.604.34.416 2.055c1.434-1.144 2.875-2.008 4.32-2.594 1.447-.584 2.87-.877 4.266-.877 1.937 0 3.367.513 4.293 1.54.926 1.024 1.388 2.618 1.388 4.783 0 .275-.003.484-.01.622s-.017.276-.028.416l-.229 4.038c-.035.904-.063 1.796-.074 2.67s-.018 1.891-.018 3.047c0 .49.012 1.02.037 1.585l.074 1.773a153.33 153.33 0 0 0-3.953-.198 93.034 93.034 0 0 0-3.464-.064l-.265-14.002-5.34.319.17 5.679.004-.004zm16.832 2l6.19.473.341 1.396 7.963.223-1.188-2.828c-5.424-.287-9.033-.975-10.83-2.055-1.8-1.082-2.7-2.92-2.7-5.512 0-2.302.666-3.96 2-4.972 1.334-1.014 3.58-1.52 6.737-1.52 3.006 0 5.217.462 6.633 1.387 1.415.926 2.28 2.456 2.597 4.595h-.115c-2.504-.1-4.396-.15-5.68-.15l-.51-1.623h-6.02l-1.047 2.93c5.223.213 9.826.69 11.728 1.781 1.899 1.086 2.851 2.881 2.851 5.385 0 2.24-.84 3.994-2.521 5.258s-4.021 1.896-7.028 1.896c-3.057 0-5.388-.554-6.99-1.659-1.604-1.107-2.408-2.725-2.408-4.851v-.151l-.003-.003zM164.9 31.3c-.926-1.025-2.357-1.54-4.293-1.54-1.397 0-2.82.294-4.266.88-1.447.584-2.887 1.45-4.32 2.594l-.416-2.057-5.299-.32a18.606 18.606 0 0 1 1.407 3.52c.481 1.691.745 3.438.786 5.196l.006.284.002.291a20.176 20.176 0 0 1-2.206 9.228l6.604-.216c.05-1.771.098-3.21.143-4.311.043-1.102.09-2.06.141-2.879l-.17-5.681 5.34-.319.265 14.002c1.108 0 2.263.021 3.463.066 1.2.042 2.521.107 3.954.195a248.84 248.84 0 0 0-.077-1.772 41.96 41.96 0 0 1-.036-1.586c0-1.155.006-2.172.018-3.047.014-.875.039-1.765.076-2.67l.227-4.04a12.114 12.114 0 0 0 .038-1.036c0-2.165-.464-3.76-1.388-4.784M23.356 33.008c-2.918-1.605-7.485-2.406-13.7-2.406l-2.522.137 1.617-4.8a37.172 37.172 0 0 1 3.095-.132c1.006 0 1.963.03 2.87.085.904.058 1.78.148 2.622.274l-.152 2.924 8.813.304c.025-.252.045-.472.057-.66.012-.19.018-.364.018-.528 0-2.555-1.01-4.526-3.028-5.916s-4.89-2.085-8.614-2.085c-5.057 0-8.665.695-10.82 2.085C1.45 23.68.37 25.973.37 29.17c0 1.873.37 3.474 1.113 4.802.742 1.326 1.856 2.367 3.34 3.124 1.61.829 4.586 1.389 8.926 1.68 1.964.125 3.48.25 4.55.377.037.642.065 1.166.084 1.574.018.409.028.719.028.935 0 .417.026 2.51-.012 3.604 0 .202-.006.359-.02.473l-8.687-1.735a18.368 18.368 0 0 1-.13-1.462 30.332 30.332 0 0 1-.04-1.538l-9.076-.415c-.012.125-.02.245-.028.357-.007.115-.01.234-.01.359 0 2.93 1.25 5.219 3.755 6.86 2.504 1.64 6.007 2.46 10.51 2.46 4.152 0 7.366-.883 9.643-2.65 2.278-1.767 3.416-4.25 3.416-7.443 0-3.412-1.46-5.92-4.378-7.522m22.703 9.877h-3.87l.153 2.62-3.586-.034.303-9.965 5.85-.076.34-5.188-5.87-.227.227-5.643-7.47-.877 1.016 7.37-3.284-.077-.226 4.134 3.038.32c-.315 1.975-.535 3.663-.66 5.066a45.996 45.996 0 0 0-.19 4.084v.813c0 .793.076 1.396.228 1.813.15.414.402.806.754 1.168a6.93 6.93 0 0 0 2.698 1.748c1.058.383 2.31.574 3.756.574 2.25 0 3.972-.463 5.16-1.387 1.19-.925 1.784-2.255 1.784-3.99 0-.43-.012-.828-.037-1.199s-.063-.721-.114-1.047M62.248 29.94c.075 1.712.132 3.136.17 4.274.037 1.14.056 1.979.056 2.521 0 1.31-.015 2.604-.047 3.89-.032 1.28-.08 2.577-.14 3.886h-6.172l.452-14.02h-3.83l-4.02-.21.397 6.701v.527c0 .381-.032 1.19-.094 2.436a63.3 63.3 0 0 0-.095 3.171c0 2.352.636 4.145 1.906 5.377 1.272 1.233 3.108 1.85 5.51 1.85 1.36 0 2.66-.26 3.898-.782 1.24-.52 2.387-1.285 3.444-2.293l.226 1.381 5.888.149-.208-10.118.208-8.55-7.549-.19zm32.966 7.38v-1.736l.038-8.077v-1.435c0-1.106.02-2.092.057-2.953.037-.861.093-1.695.17-2.502-.14.014-.322.02-.55.02-1.093.05-1.848.075-2.263.075-.742 0-2.02-.044-3.83-.132-.195-.009-.39-.021-.585-.036.244 1.77.42 3.547.528 5.33.113 1.844.17 3.74.17 5.69a7.622 7.622 0 0 0-2.652-1.765c-1-.398-2.11-.595-3.33-.595-2.97 0-5.31.91-7.02 2.735-1.71 1.824-2.567 4.329-2.567 7.51 0 3.51.747 6.127 2.238 7.85 1.49 1.725 3.758 2.588 6.803 2.588 1.258 0 2.447-.193 3.567-.576 1.12-.385 2.007-.903 2.66-1.56l.567 1.51c.49-.021.955-.042 1.396-.055a43.6 43.6 0 0 1 1.284-.021c.3 0 1.005.014 2.113.039.654.014 1.17.024 1.548.036-.114-1.735-.2-3.61-.256-5.622a223.511 223.511 0 0 1-.086-6.32m-7.925 6.604h-7.115l.075-7.964 8.144-.114-1.104 8.078zm17.611-.264a20.31 20.31 0 0 1-.29-2.922l-.008-.297v-.293c0-.39.01-.774.032-1.164a20.77 20.77 0 0 1 .762-4.609c.365-1.277.87-2.518 1.498-3.687l-7.037.5.15 5.716c.012.453.022.871.03 1.255.005.385.008.71.008.974 0 .63-.05 1.547-.15 2.754V42l-.586 7.45 7.774.475v-.032a20.039 20.039 0 0 1-2.185-6.234m-3.664-16.114c.868.767 1.874 1.15 3.02 1.15 1.043 0 1.912-.44 2.603-1.32a4.726 4.726 0 0 0 1.038-3c0-.92-.444-1.77-1.33-2.548-.887-.78-1.82-1.172-2.803-1.172-.855 0-1.708.433-2.557 1.294-.85.86-1.273 1.813-1.273 2.857 0 1.058.434 1.97 1.302 2.739m44.561 12.06l-.006-.269c-.005-.19-.016-.37-.023-.555a19.622 19.622 0 0 0-.719-4.351c-.408-1.424-.996-2.798-1.744-4.07s-1.65-2.446-2.664-3.492a23.606 23.606 0 0 0-3.291-2.814 21.201 21.201 0 0 1-1.531-1.224 15.607 15.607 0 0 1-1.381-1.353 7.063 7.063 0 0 1-.556-.71 4.302 4.302 0 0 1-.394-.74 3.269 3.269 0 0 1-.228-1.592c.054-.566.229-1.168.464-1.767.06-.15.119-.298.186-.448l.203-.46c.143-.316.285-.638.424-.975a8.53 8.53 0 0 0 .365-1.072c.103-.378.17-.79.172-1.21a4.052 4.052 0 0 0-.189-1.236 5.355 5.355 0 0 0-.484-1.082 8.186 8.186 0 0 0-.631-.924c-.222-.285-.449-.56-.689-.828a12.07 12.07 0 0 0-.756-.782 8.212 8.212 0 0 0-.42-.366 4.958 4.958 0 0 0-.229-.176c-.04-.028-.08-.058-.122-.086l-.068-.045-.037-.02-.051-.03-.414-.245-.289.38v.002c-.18.23-.324.445-.475.675-.316.482-.594.99-.826 1.518.021-.068.034-.137.059-.2l.029-.082.041-.097.084-.192c.057-.13.112-.255.174-.38a7.2 7.2 0 0 1 .382-.723c.067-.116.142-.23.22-.35l.12-.183c.042-.067.073-.112.134-.216.2-.355.27-.77.248-1.138a3.191 3.191 0 0 0-.248-1.018c-.256-.614-.617-1.133-.996-1.604-.38-.476-.787-.922-1.236-1.338a10.127 10.127 0 0 0-.697-.595 6.75 6.75 0 0 0-.573-.407l-.104-.064c-.037-.022-.065-.04-.119-.07l-.258-.14-.256.14c-.055.03-.084.048-.121.07l-.103.064a7.703 7.703 0 0 0-.573.407c-.244.19-.477.387-.701.595-.446.416-.857.864-1.234 1.337-.38.474-.74.99-.997 1.605a3.191 3.191 0 0 0-.248 1.018c-.024.368.046.782.248 1.138l.038.065.035.058.06.094.12.183c.228.341.429.7.6 1.072.063.126.12.252.175.38l.083.195.04.09c.013.032.03.073.035.092.022.062.038.13.057.197a10.413 10.413 0 0 0-.826-1.518c-.15-.23-.296-.444-.474-.676l-.286-.382-.417.245-.053.03-.036.02-.067.046c-.043.028-.084.058-.123.086a7.15 7.15 0 0 0-.65.542c-.266.25-.516.515-.755.782-.238.27-.467.545-.685.824-.23.296-.44.596-.634.928-.192.33-.362.69-.485 1.08-.122.39-.19.815-.19 1.236.002.422.072.833.172 1.21.1.382.232.735.368 1.073.137.337.28.66.423.976l.203.46c.065.15.127.298.184.448.232.6.41 1.2.464 1.768a3.256 3.256 0 0 1-.226 1.592c-.052.13-.113.256-.18.382l-.05.096-.056.095-.108.17c-.158.235-.35.474-.556.707-.415.467-.885.92-1.38 1.353-.49.43-1.017.852-1.535 1.227a23.618 23.618 0 0 0-3.286 2.812 18.487 18.487 0 0 0-2.664 3.49 17.537 17.537 0 0 0-1.744 4.072 19.663 19.663 0 0 0-.72 4.35c-.02.365-.03.73-.03 1.097v.277l.006.28a18.983 18.983 0 0 0 3.758 10.86 19.243 19.243 0 0 0 6.765 5.69c2.66 1.34 5.64 2.04 8.614 2.038h.011l.262-.002.287-.006a19.183 19.183 0 0 0 8.056-2.03 19.287 19.287 0 0 0 6.764-5.69 19 19 0 0 0 3.767-11.416l-.005-.277.002-.001zm-2.609.147v.109a16.978 16.978 0 0 1-.293 2.854 16.602 16.602 0 0 1-8.906 11.713 16.48 16.48 0 0 1-3.564 1.286 16.38 16.38 0 0 1-3.292.422l-.229.007-.248.002a16.424 16.424 0 0 1-7.332-1.715 16.633 16.633 0 0 1-5.817-4.811 16.541 16.541 0 0 1-3.365-9.28l-.01-.235-.005-.242a26.1 26.1 0 0 1 .006-.969c.033-1.283.21-2.559.528-3.803.32-1.235.795-2.427 1.415-3.545a17.166 17.166 0 0 1 2.25-3.13 21.32 21.32 0 0 1 2.898-2.658 23.453 23.453 0 0 0 1.644-1.41 16.323 16.323 0 0 0 1.512-1.6 8.84 8.84 0 0 0 .675-.948c.052-.09.1-.173.156-.277l.068-.132.066-.134c.086-.182.164-.37.233-.565a5.084 5.084 0 0 0 .24-2.47c-.118-.805-.377-1.524-.67-2.197a25.535 25.535 0 0 0-.23-.497c-.08-.166-.164-.323-.24-.474-.157-.305-.31-.604-.448-.898-.278-.59-.49-1.153-.52-1.686-.016-.268.01-.534.08-.806s.18-.545.316-.82c.144-.28.305-.55.482-.81.19-.276.384-.545.587-.804.202-.26.414-.51.633-.747.089-.094.181-.186.275-.275l.088.13c.134.208.26.42.38.633.238.428.446.87.598 1.32.299.925.461 1.888.484 2.86l-.022 3.908 1.092-3.74c.169-.587.292-1.187.367-1.794.075-.605.11-1.226.037-1.867-.04-.32-.1-.64-.223-.977l-.044-.11-.046-.11-.09-.206a15.27 15.27 0 0 0-.187-.412 9.084 9.084 0 0 0-.675-1.202l-.12-.182-.056-.087-.022-.038-.018-.028a.974.974 0 0 1-.108-.54c.012-.208.073-.438.167-.666.19-.46.495-.91.84-1.338.346-.433.72-.842 1.125-1.218a8.99 8.99 0 0 1 .949-.77c.021-.015.041-.026.061-.04.018.014.037.025.057.04.109.075.221.154.327.238.216.168.425.346.625.532.401.374.78.785 1.125 1.217.345.43.647.877.84 1.338.093.23.152.458.166.665a.965.965 0 0 1-.11.54 2.429 2.429 0 0 1-.095.153l-.12.182a9.122 9.122 0 0 0-.674 1.202c-.066.137-.128.273-.189.412l-.088.207-.043.103a4.12 4.12 0 0 0-.268 1.093c-.074.642-.04 1.262.034 1.867.036.304.09.604.149.9.061.3.127.583.219.895l1.09 3.74-.02-3.91a9.54 9.54 0 0 1 .137-1.44c.08-.48.199-.97.348-1.42.15-.45.357-.892.598-1.32.119-.213.245-.424.379-.63.028-.045.061-.088.088-.132.094.09.187.182.275.276.221.236.43.487.635.747.203.258.399.527.584.8.18.267.346.54.484.812.137.275.248.55.314.82.07.27.097.538.08.806-.029.532-.242 1.096-.52 1.686-.141.294-.29.594-.447.897-.168.318-.324.642-.468.972-.294.674-.554 1.394-.672 2.197a5.128 5.128 0 0 0 .239 2.472c.141.39.311.75.523 1.107.211.345.438.655.676.948.475.586.985 1.103 1.51 1.598.265.248.529.487.806.72.272.237.54.46.845.693a21.594 21.594 0 0 1 2.895 2.654c.865.955 1.62 2.005 2.25 3.13a15.12 15.12 0 0 1 1.414 3.547c.358 1.399.539 2.839.537 4.283v.25l-.002.13-.005.002z"/><path fill="#FFF" d="M120.21 46.37a12.656 12.656 0 0 1-2.183-2.944c-.585-1.103-1.015-2.306-1.352-3.625-.34 1.325-.248 2.77.182 4.11a8.884 8.884 0 0 0 2.2 3.61 8.852 8.852 0 0 0 3.612 2.203c1.34.433 2.785.521 4.11.18-1.32-.34-2.523-.77-3.625-1.353a12.757 12.757 0 0 1-2.945-2.18m2.219-12.517c.49 0 .89-.708.89-1.584 0-.874-.4-1.583-.89-1.583-.492 0-.89.71-.89 1.583 0 .876.4 1.584.89 1.584m9.12-3.166c-.491 0-.89.71-.89 1.583 0 .876.396 1.585.89 1.585.49 0 .89-.71.89-1.584s-.399-1.582-.89-1.582M5.973 59.305v.58a2.992 2.992 0 0 0-1.003-.775 2.804 2.804 0 0 0-1.208-.273c-.838 0-1.538.3-2.097.896-.56.597-.84 1.317-.84 2.164 0 .84.28 1.553.844 2.136.563.584 1.263.875 2.102.875a2.8 2.8 0 0 0 1.19-.271c.385-.18.722-.427 1.01-.74v.58a3.22 3.22 0 0 1-2.182.83c-.968-.007-1.782-.343-2.44-1.01a3.285 3.285 0 0 1-.978-2.42c0-.96.33-1.771.987-2.438.658-.662 1.462-.998 2.412-1.004.438 0 .845.08 1.218.24.374.16.7.37.983.631m4.491-.38H8.764v6.27H8.33v-6.27h-1.7v-.4h3.832v.4zm.276-.401h.49l2.272 4.322 1.924-4.322h.443l-2.997 6.67h-.416l.814-1.83-2.53-4.84zm6.092 0h3.695v6.27h.746v1.74h-.412v-1.34h-4.892v1.34h-.413v-1.74c.196.014.39-.059.58-.215.19-.156.343-.385.46-.686.08-.205.137-.451.173-.734s.057-.622.064-1.016v-3.621l-.001.002zm.432.4v3.22c0 .453-.02.824-.06 1.11a3.57 3.57 0 0 1-.175.75c-.066.16-.14.306-.222.435-.08.131-.175.25-.28.355h3.567v-5.87h-2.83zm9.708 6.27V59.63l-4.677 5.735v-6.84h.432v5.67l4.678-5.74v6.74h-.433zm1.654 0l1.982-2.99c-.13 0-.26-.014-.388-.04a1.8 1.8 0 0 1-.35-.11 1.604 1.604 0 0 1-.756-.609c-.195-.286-.294-.646-.294-1.08 0-.354.078-.666.236-.938.157-.272.364-.485.62-.64.167-.091.345-.156.53-.196.196-.042.428-.063.697-.063h1.12V65.2h-.43v-2.99h-.486l-1.97 2.99h-.51l-.001-.005zm2.964-6.27H30.9a3.993 3.993 0 0 0-.51.046c-.133.02-.263.059-.384.116a1.193 1.193 0 0 0-.545.511c-.129.234-.195.5-.19.77 0 .24.036.453.112.64.075.188.18.337.32.45.13.12.29.21.475.27.188.061.408.088.664.08h.748v-2.88l-.002-.003zm4.49 6.27v-6.67h1.435c.557 0 .998.151 1.322.459.324.309.487.711.487 1.211 0 .313-.065.596-.192.846a1.56 1.56 0 0 1-.575.615c.42.072.75.263.992.564.243.305.364.672.364 1.104-.006.579-.196 1.036-.57 1.37-.373.332-.86.5-1.464.5h-1.799v.001zm.433-6.27v2.62h1.038c.203 0 .37-.02.504-.061.133-.039.263-.112.387-.219.13-.113.232-.257.307-.427.079-.188.121-.392.123-.596a1.702 1.702 0 0 0-.123-.601 1.137 1.137 0 0 0-.318-.439 1.292 1.292 0 0 0-.432-.205 2.951 2.951 0 0 0-.655-.075h-.832l.001.003zm0 3.02v2.85h1.102c.38 0 .67-.029.874-.09.205-.061.393-.166.55-.311.144-.127.25-.276.32-.449.07-.182.105-.375.103-.57 0-.3-.06-.553-.173-.76a1.144 1.144 0 0 0-.526-.48 1.987 1.987 0 0 0-.525-.145 4.986 4.986 0 0 0-.702-.045H36.51h.001zm7.959-3.42v.399h-2.713v2.421h2.654v.399h-2.653v3.05h2.713v.4h-3.145v-6.67h3.144zm1.415 6.67v-6.67h3.154v.399h-2.723v2.47h1.14c.746 0 1.31.155 1.69.465.38.311.57.766.57 1.365 0 .627-.193 1.112-.58 1.455-.387.344-.9.514-1.542.514h-1.71l.001.002zm.432-3.4v3h1.1c.36.008.65-.023.865-.094.217-.07.407-.186.57-.346.132-.133.233-.295.305-.483.074-.207.111-.425.108-.646 0-.3-.057-.55-.172-.75a1.247 1.247 0 0 0-.506-.479 1.558 1.558 0 0 0-.48-.149 6.574 6.574 0 0 0-.768-.051h-1.023l.001-.002zm12.361-2.49v.58a2.999 2.999 0 0 0-1.002-.775 2.81 2.81 0 0 0-1.21-.273c-.837 0-1.536.3-2.096.896s-.84 1.317-.84 2.164c0 .84.28 1.553.844 2.136.563.584 1.265.875 2.103.875.407 0 .803-.091 1.19-.271.385-.18.723-.427 1.01-.74v.58a3.241 3.241 0 0 1-2.18.83c-.97-.007-1.784-.343-2.442-1.01-.658-.667-.984-1.474-.978-2.42 0-.96.33-1.771.988-2.438.66-.662 1.463-.998 2.412-1.004.44 0 .845.08 1.218.24.374.16.702.37.983.631m4.452-.87c.955 0 1.76.332 2.416 1 .655.666.983 1.48.983 2.44-.008.966-.34 1.78-.993 2.438-.656.66-1.458.99-2.408.99-.958 0-1.764-.33-2.418-.99-.656-.66-.983-1.474-.983-2.44 0-.96.325-1.771.977-2.435s1.46-.998 2.422-1.004m0 6.469c.838 0 1.538-.289 2.1-.869s.847-1.301.847-2.16c-.007-.855-.29-1.573-.85-2.16s-1.26-.88-2.098-.88c-.846 0-1.55.293-2.11.88s-.84 1.307-.84 2.16c0 .859.28 1.58.84 2.16s1.264.869 2.111.869m5.27-5.25l-.314-.27c.184-.314.425-.55.727-.71.3-.159.65-.239 1.05-.239.236 0 .452.035.65.104.196.07.375.178.54.324.157.16.275.34.353.539.08.201.118.421.118.66 0 .313-.073.598-.22.851a1.6 1.6 0 0 1-.643.61c.418.106.742.319.972.64.228.319.343.694.343 1.12-.006.333-.076.64-.206.92a1.78 1.78 0 0 1-.54.68 1.8 1.8 0 0 1-.68.316c-.26.063-.51.098-.745.104a2.542 2.542 0 0 1-1.323-.369 2.284 2.284 0 0 1-.89-1.041l.414-.199c.144.367.384.66.72.88a1.983 1.983 0 0 0 1.71.235c.214-.063.39-.147.527-.256.184-.14.32-.32.414-.539.092-.221.14-.463.147-.73 0-.46-.155-.82-.466-1.083s-.738-.396-1.282-.396h-.59v-.4h.59c.34 0 .642-.119.904-.363s.393-.566.393-.975c0-.181-.028-.34-.08-.48a1.232 1.232 0 0 0-.226-.38 1.09 1.09 0 0 0-.403-.274 1.472 1.472 0 0 0-.55-.095c-.307 0-.578.07-.814.21a1.763 1.763 0 0 0-.6.61m9.669 5.537V59.63l-4.678 5.735v-6.84h.433v5.67l4.677-5.74v6.74h-.432zm2.73-6.67h3.695v6.27h.746v1.74h-.413v-1.34H79.93v1.34h-.412v-1.74c.196.014.39-.059.58-.215s.343-.385.46-.686a3.12 3.12 0 0 0 .173-.734c.037-.283.058-.622.065-1.016v-3.621l-.001.002zm.433.4v3.22c0 .453-.02.824-.06 1.11a3.509 3.509 0 0 1-.175.75c-.066.16-.14.306-.222.435-.08.131-.174.25-.28.355h3.568v-5.87h-2.831zm9.29 6.27l-.86-2.19H86.85l-.87 2.19h-.468l2.762-6.87 2.72 6.87h-.476zm-3.51-2.59h2.494l-1.24-3.154-1.254 3.154zm5.442-4.08v2.83h3.97v-2.83h.43v6.67h-.43v-3.44h-3.97v3.44h-.433v-6.67h.433zm10.847 6.67V59.63l-4.677 5.735v-6.84h.432v5.67l4.677-5.74v6.74h-.432zm1.653 0l1.982-2.99a1.933 1.933 0 0 1-.737-.15 1.6 1.6 0 0 1-.756-.609c-.197-.286-.295-.646-.295-1.08 0-.354.078-.666.235-.938.148-.263.362-.483.62-.64.156-.088.334-.153.53-.196.196-.043.43-.063.698-.063h1.12V65.2h-.433v-2.99h-.485l-1.97 2.99h-.51l.001-.005zm2.965-6.27h-.688c-.171.005-.341.02-.51.046-.133.02-.262.059-.384.116a1.2 1.2 0 0 0-.546.511c-.128.227-.19.481-.19.77 0 .24.036.453.112.64.074.188.18.337.318.45.13.12.29.21.476.27.188.061.408.088.663.08h.747v-2.88l.002-.003zm39.627-.4h3.587v6.27h.725v1.74h-.4v-1.34h-4.75v1.34h-.4v-1.74c.19.014.377-.059.563-.215.185-.156.335-.385.449-.686.074-.205.131-.451.166-.734s.057-.622.063-1.016v-3.621l-.003.002zm.42.4v3.22c0 .453-.021.824-.06 1.11-.03.255-.088.507-.17.75-.063.16-.135.306-.215.435a2.1 2.1 0 0 1-.27.355h3.46v-5.87h-2.745zm9.018 6.27l-.836-2.19h-2.727l-.846 2.19h-.452l2.68-6.87 2.642 6.87h-.463.002zm-3.408-2.59h2.421l-1.202-3.154-1.217 3.154h-.002zm6.103-.58h-.819v3.17h-.42v-6.67h1.229c.54 0 .983.151 1.335.459.35.309.523.733.523 1.281 0 .553-.17.983-.51 1.295-.34.31-.786.465-1.338.465m-.82-3.1v2.7h.838c.414 0 .75-.12 1.007-.359.257-.24.387-.57.387-.99 0-.412-.13-.74-.387-.98s-.615-.361-1.073-.368h-.773l.001-.003zm8.375 6.27V59.63l-4.543 5.735v-6.84h.42v5.67l4.541-5.74v6.74h-.418zm2.491 0h-.423l.726-6.9 2.756 6.172 2.756-6.172.725 6.9h-.42l-.563-5.355-2.5 5.596-2.498-5.596-.559 5.355zm15.513-5.89v.58a2.91 2.91 0 0 0-.973-.775 2.655 2.655 0 0 0-1.174-.273c-.814 0-1.492.3-2.035.896-.545.597-.816 1.317-.816 2.164 0 .84.273 1.553.82 2.136.547.584 1.228.875 2.039.875.397 0 .78-.091 1.156-.271s.703-.427.98-.74v.58c-.277.26-.601.465-.963.61-.361.146-.746.22-1.152.22-.939-.007-1.732-.343-2.37-1.01-.64-.667-.955-1.474-.95-2.42 0-.96.32-1.771.96-2.438a3.165 3.165 0 0 1 2.341-1.004c.426 0 .819.08 1.182.24.365.16.683.37.955.631m1.976-.781h3.586v6.67h-.42v-6.271h-2.746v3.88c0 .614-.034 1.063-.104 1.35a1.63 1.63 0 0 1-.344.701 1.192 1.192 0 0 1-.424.299 1.316 1.316 0 0 1-.502.101.872.872 0 0 1-.176-.021c-.066-.014-.137-.025-.206-.039v-.4c.114.039.233.06.353.061a.838.838 0 0 0 .623-.257 1.12 1.12 0 0 0 .267-.521c.057-.229.088-.65.095-1.272l-.002-4.281zm8.354 0v.399h-2.631v2.421h2.573v.399h-2.573v3.05h2.629v.4h-3.049v-6.67h3.051zm1.813 1.129l-.307-.27c.181-.314.414-.55.707-.71a2.11 2.11 0 0 1 1.021-.239c.229 0 .44.035.63.104.19.07.366.178.525.324.152.16.268.34.343.539.077.201.115.421.115.66 0 .313-.072.598-.216.851-.143.255-.35.457-.623.61.406.106.722.319.943.64.223.319.334.694.334 1.12-.007.333-.072.64-.201.92a1.76 1.76 0 0 1-.522.68c-.194.152-.42.26-.66.316a3.328 3.328 0 0 1-.723.104 2.405 2.405 0 0 1-1.282-.369c-.378-.24-.666-.588-.863-1.041l.4-.199c.141.367.374.66.699.88a1.877 1.877 0 0 0 1.66.235c.207-.063.377-.147.513-.256.178-.14.31-.32.399-.539a2.15 2.15 0 0 0 .144-.73c0-.46-.149-.82-.453-1.083s-.717-.396-1.245-.396h-.572v-.4h.572c.33 0 .623-.119.878-.363.255-.242.38-.566.38-.975a1.248 1.248 0 0 0-.295-.86 1.04 1.04 0 0 0-.39-.274 1.402 1.402 0 0 0-.535-.095c-.3 0-.563.07-.79.21-.23.141-.425.344-.583.61m4.841 5.537v-6.67h.42v2.869h1.107c.725 0 1.27.155 1.641.467.369.31.553.765.553 1.363 0 .627-.188 1.11-.563 1.457-.377.342-.876.514-1.5.514h-1.66.002zm.42-3.4v3h1.069c.351.008.63-.023.84-.094.208-.07.394-.186.552-.346.129-.133.228-.295.297-.485.07-.19.104-.405.104-.646 0-.301-.056-.551-.167-.75a1.241 1.241 0 0 0-.492-.48 1.6 1.6 0 0 0-.457-.154 4.756 4.756 0 0 0-.754-.045h-.992zm4.025-3.27h.42v6.67h-.42v-6.67zm5.6 3.5h-.82v3.17h-.42v-6.67h1.229c.54 0 .986.151 1.335.459.35.309.525.733.525 1.281 0 .553-.17.983-.51 1.295-.339.31-.787.465-1.339.465m-.821-3.1v2.7h.84c.412 0 .746-.12 1.005-.359.257-.24.387-.57.387-.99 0-.412-.13-.74-.387-.98-.258-.24-.616-.361-1.073-.368h-.773l.001-.003zm7.584 6.27l-.832-2.19h-2.727l-.845 2.19h-.453l2.681-6.87 2.642 6.87h-.466zm-3.404-2.59h2.42l-1.202-3.154-1.218 3.154zm5.377-4.08h3.586v6.27h.725v1.74h-.4v-1.34h-4.748v1.34h-.4v-1.74c.19.014.377-.059.563-.215.184-.156.332-.385.447-.686.084-.238.139-.484.166-.734.039-.338.06-.677.062-1.016v-3.621l-.001.002zm.42.4v3.22c0 .453-.02.824-.061 1.11a3.754 3.754 0 0 1-.17.75c-.063.16-.135.306-.215.435a2.1 2.1 0 0 1-.27.355h3.46v-5.87h-2.744zm7.838-.489c.93 0 1.713.332 2.348 1 .636.666.953 1.48.953 2.44-.004.966-.326 1.78-.961 2.438-.637.66-1.416.99-2.338.99-.93 0-1.71-.33-2.346-.99-.637-.66-.954-1.474-.954-2.44 0-.96.317-1.771.95-2.435.63-.664 1.416-.998 2.35-1.004m0 6.469c.814 0 1.495-.289 2.043-.869.547-.58.818-1.301.818-2.16-.005-.855-.28-1.573-.823-2.16s-1.223-.88-2.036-.88c-.82 0-1.5.293-2.043.88-.545.587-.816 1.307-.816 2.16 0 .859.271 1.58.816 2.16.543.58 1.223.869 2.045.869m9.771-5.599v.58a2.93 2.93 0 0 0-.973-.775 2.658 2.658 0 0 0-1.174-.273c-.813 0-1.492.3-2.037.896-.543.597-.814 1.317-.814 2.164 0 .84.271 1.553.82 2.136.545.584 1.227.875 2.039.875.396 0 .781-.091 1.154-.271.375-.18.703-.427.982-.74v.58a3.086 3.086 0 0 1-2.117.83c-.941-.007-1.732-.343-2.372-1.01s-.954-1.474-.95-2.42c0-.96.32-1.771.961-2.438a3.163 3.163 0 0 1 2.34-1.004c.43 0 .822.08 1.185.24s.681.37.954.631m4.361-.38h-1.65v6.27h-.42v-6.27h-1.65v-.4h3.721v.4zm5.532 6.269V59.63l-4.539 5.735v-6.84h.42v5.67l4.539-5.74v6.74h-.42zM.63 53.95h108v1H.63v-1zm146 0h103v1h-103v-1z"/></svg>