<svg xmlns="http://www.w3.org/2000/svg" width="65" height="65" viewBox="92.5 1 65 65"><path d="M144.61 43.603l-.006-.276c-.005-.193-.017-.379-.024-.567a20.128 20.128 0 0 0-.736-4.459 18.101 18.101 0 0 0-1.787-4.17 18.92 18.92 0 0 0-2.729-3.576 24.147 24.147 0 0 0-3.372-2.884 22.244 22.244 0 0 1-1.568-1.254c-.5-.432-.972-.895-1.415-1.386a7.154 7.154 0 0 1-.569-.728 4.273 4.273 0 0 1-.403-.759 3.341 3.341 0 0 1-.233-1.631c.056-.579.233-1.196.476-1.81.062-.154.121-.305.19-.459l.208-.472c.146-.324.292-.653.435-.998.138-.348.273-.708.374-1.099.104-.388.174-.81.176-1.239s-.065-.856-.194-1.267a5.46 5.46 0 0 0-.496-1.109 8.224 8.224 0 0 0-.646-.946 16.41 16.41 0 0 0-.705-.848 12.67 12.67 0 0 0-.774-.802 8.132 8.132 0 0 0-.431-.374c-.075-.063-.154-.122-.234-.182-.04-.027-.082-.059-.124-.088l-.07-.046-.038-.02-.052-.031-.424-.251-.297.389v.002a9.711 9.711 0 0 0-.486.692 10.532 10.532 0 0 0-.846 1.555c.021-.069.034-.14.06-.205l.03-.084.042-.099.086-.197c.058-.133.114-.261.178-.39.12-.256.246-.504.392-.74.069-.119.145-.235.225-.358l.123-.188c.044-.069.075-.115.138-.221a2.15 2.15 0 0 0 .254-1.167 3.248 3.248 0 0 0-.254-1.043c-.263-.629-.633-1.16-1.021-1.643a12.346 12.346 0 0 0-1.267-1.371 10.335 10.335 0 0 0-.714-.609 6.92 6.92 0 0 0-.587-.417l-.106-.065c-.038-.023-.066-.041-.122-.072l-.268-.141-.262.143a2.167 2.167 0 0 0-.124.072l-.106.065c-.202.13-.398.27-.586.417-.251.195-.49.396-.719.609a12.58 12.58 0 0 0-1.264 1.37c-.389.485-.758 1.014-1.021 1.644a3.274 3.274 0 0 0-.254 1.043c-.024.377.047.802.254 1.167l.039.065.036.061.062.096.123.188c.233.35.439.717.615 1.098.064.13.123.259.179.39l.085.2.041.092a.98.98 0 0 1 .036.094c.022.064.039.134.058.202a10.532 10.532 0 0 0-.846-1.555 10.457 10.457 0 0 0-.486-.693l-.292-.391-.427.251-.055.031-.037.02-.069.047c-.044.029-.086.061-.126.088a7.514 7.514 0 0 0-.666.556c-.272.256-.528.528-.773.802-.244.276-.479.558-.702.844-.235.304-.451.61-.649.951a5.477 5.477 0 0 0-.498 1.106 4.284 4.284 0 0 0-.194 1.267c.002.432.074.853.176 1.239.103.392.238.753.377 1.1.141.345.287.675.433.999l.208.472c.066.154.13.305.188.459.238.614.42 1.229.476 1.811a3.334 3.334 0 0 1-.232 1.632 3.767 3.767 0 0 1-.184.392l-.051.098-.057.098-.111.174a7.12 7.12 0 0 1-.569.725 16.02 16.02 0 0 1-1.414 1.387c-.502.439-1.042.872-1.572 1.256a24.149 24.149 0 0 0-3.367 2.882 18.926 18.926 0 0 0-2.729 3.574 17.967 17.967 0 0 0-1.786 4.174 20.133 20.133 0 0 0-.738 4.456c-.021.374-.031.748-.031 1.123v.284l.006.287a19.45 19.45 0 0 0 3.849 11.125 19.708 19.708 0 0 0 6.931 5.829 19.663 19.663 0 0 0 8.824 2.089h.012l.269-.002.294-.006c.572-.02 1.142-.062 1.709-.124a19.683 19.683 0 0 0 6.545-1.957 19.749 19.749 0 0 0 6.929-5.829 19.45 19.45 0 0 0 3.859-11.695l-.005-.284zm-2.673.15v.112a17.268 17.268 0 0 1-.3 2.923 17.007 17.007 0 0 1-9.124 12 16.83 16.83 0 0 1-3.65 1.317 16.897 16.897 0 0 1-3.373.433l-.234.007-.254.002a16.827 16.827 0 0 1-7.512-1.757 17.047 17.047 0 0 1-5.959-4.929 16.95 16.95 0 0 1-3.447-9.507l-.01-.241-.005-.248c-.004-.329-.002-.662.006-.993.034-1.314.215-2.621.541-3.896a15.485 15.485 0 0 1 1.45-3.632 17.63 17.63 0 0 1 2.305-3.207 21.742 21.742 0 0 1 2.969-2.723 24.357 24.357 0 0 0 1.685-1.445 16.645 16.645 0 0 0 1.548-1.639c.242-.299.476-.618.692-.971.053-.093.102-.178.16-.284l.07-.136.068-.137c.088-.187.167-.379.239-.579.29-.811.374-1.679.245-2.53-.12-.824-.386-1.562-.686-2.251a26.889 26.889 0 0 0-.236-.51c-.082-.17-.168-.33-.246-.484-.16-.313-.317-.619-.458-.921-.285-.604-.502-1.181-.533-1.727-.017-.274.01-.548.082-.825a4.35 4.35 0 0 1 .324-.841c.147-.287.313-.563.494-.829.194-.283.394-.56.601-.824.207-.267.424-.522.649-.766.091-.097.185-.19.282-.281l.09.133c.138.213.267.431.389.648.244.438.458.892.613 1.353.306.947.472 1.934.496 2.93l-.022 4.004L123 16.671c.173-.602.299-1.216.376-1.838.077-.619.113-1.256.038-1.912a4.457 4.457 0 0 0-.229-1.001l-.045-.113-.047-.112-.092-.211a20.104 20.104 0 0 0-.191-.422 9.114 9.114 0 0 0-.692-1.231l-.123-.187-.058-.089-.022-.039-.019-.029a.992.992 0 0 1-.11-.553c.012-.214.074-.448.171-.683.195-.472.507-.933.86-1.371.355-.442.738-.862 1.153-1.247.306-.285.63-.548.973-.789.021-.016.042-.026.062-.041.019.015.038.025.059.041.111.077.226.157.335.244.221.172.435.354.64.545.411.383.8.805 1.153 1.246.353.44.663.898.86 1.371.095.236.155.469.17.682a.994.994 0 0 1-.113.553 2.534 2.534 0 0 1-.096.157l-.124.187a9.32 9.32 0 0 0-.69 1.232c-.068.14-.131.279-.194.422l-.09.212-.044.105a4.28 4.28 0 0 0-.275 1.119c-.076.658-.041 1.294.035 1.913.037.313.092.619.153.923.062.307.13.597.224.916l1.116 3.832-.02-4.006c.002-.242.015-.485.04-.728.021-.25.058-.498.1-.747.082-.492.204-.995.356-1.455a7.93 7.93 0 0 1 .612-1.353c.122-.218.252-.435.389-.646.028-.046.063-.09.09-.135.097.092.191.186.282.282.226.242.439.499.65.765.208.265.409.541.598.82.186.273.355.553.496.832.141.282.255.563.322.84.072.276.1.552.082.826-.029.545-.248 1.122-.533 1.727-.145.301-.297.609-.457.919a14.95 14.95 0 0 0-.48.996c-.301.69-.567 1.429-.688 2.251a5.261 5.261 0 0 0 .244 2.532c.146.4.319.769.537 1.135.216.353.449.671.691.971.487.601 1.01 1.13 1.547 1.637.272.255.543.5.827.737.277.243.553.472.866.711a22.067 22.067 0 0 1 2.965 2.719 17.635 17.635 0 0 1 2.306 3.207 15.503 15.503 0 0 1 1.448 3.634c.366 1.434.553 2.908.551 4.388v.257l-.002.133-.006.001zm-23.538 6.78a12.952 12.952 0 0 1-2.236-3.017c-.6-1.13-1.04-2.362-1.385-3.714-.348 1.357-.254 2.837.187 4.211a9.104 9.104 0 0 0 2.254 3.699 9.097 9.097 0 0 0 3.7 2.257c1.373.443 2.854.533 4.211.184-1.353-.348-2.585-.789-3.714-1.387a12.941 12.941 0 0 1-3.017-2.233m2.272-12.823c.502 0 .912-.726.912-1.623 0-.896-.41-1.621-.912-1.621-.504 0-.912.727-.912 1.621.001.897.41 1.623.912 1.623m9.344-3.243c-.504 0-.912.727-.912 1.621 0 .897.406 1.624.912 1.624.502 0 .911-.728.911-1.623s-.408-1.62-.911-1.62"/></svg>